<svg xmlns="http://www.w3.org/2000/svg" viewBox="0 0 147.6 147.57"><defs><style>.cls-1{fill:#fff;}</style></defs><title>Fichier 1</title><g id="Calque_2" data-name="Calque 2"><g id="Calque_1-2" data-name="Calque 1"><path class="cls-1" d="M66.32,67.45c-5.9-18.39-11.77-36.66-17.71-55.17L10.09,81.41Z"/><path class="cls-1" d="M141.17,44C123.39,4.07,79.53-8,47.4,5a1.12,1.12,0,0,0,.23.25C51,7.12,54.29,9,57.65,10.82a2.21,2.21,0,0,0,1.42.09,61.11,61.11,0,0,1,29.05,0c24.64,6.3,40.54,21.86,47.95,46.15.46,1.52.73,3.1,1.15,4.94L55.66,16.74l25,77.83,57.09-12.33c-.32,1.74-.63,3.28-.86,4.83a1.09,1.09,0,0,1-1,1c-3.63.76-7.25,1.55-10.87,2.34l-17.45,3.78c.17.5.29.86.42,1.22q4.43,12.38,8.84,24.75c.15.43.32,1.16.11,1.36-1.24,1.2-2.58,2.27-4,3.51L102.25,95.38l-25.2,5.45C74,91.33,71,82,68,72.55L12.61,86.29,55.12,110l42.3,23.65c-3,1.51-9.3,3.1-14.73,3.9A59.92,59.92,0,0,1,58,136.26C36.45,130.4,21.54,117,13.38,96.2c-1.14-2.88-2.61-4.8-5.37-6-2.34-1-4.51-2.48-6.82-3.77C3.66,82,6.09,77.68,8.44,73.33a8.27,8.27,0,0,0,.86-2.81c.29-2.14.32-4.33.68-6.46q4.56-27.53,27.43-43.58a4.77,4.77,0,0,0,1.29-1.43c2.34-4.14,4.64-8.29,6.95-12.44.18-.32.33-.65.55-1.08C16.5,16.61-7.88,51.91,2.39,92.19A73.71,73.71,0,1,0,141.17,44Z"/></g></g></svg>