<?xml version="1.0" encoding="UTF-8" standalone="no"?>
<!-- Generator: Adobe Illustrator 23.0.1, SVG Export Plug-In . SVG Version: 6.00 Build 0)  -->

<svg
   xmlns:dc="http://purl.org/dc/elements/1.1/"
   xmlns:cc="http://creativecommons.org/ns#"
   xmlns:rdf="http://www.w3.org/1999/02/22-rdf-syntax-ns#"
   xmlns:svg="http://www.w3.org/2000/svg"
   xmlns="http://www.w3.org/2000/svg"
   xmlns:sodipodi="http://sodipodi.sourceforge.net/DTD/sodipodi-0.dtd"
   xmlns:inkscape="http://www.inkscape.org/namespaces/inkscape"
   version="1.1"
   id="Calque_1"
   x="0px"
   y="0px"
   viewBox="0 0 161.26014 161.27003"
   xml:space="preserve"
   sodipodi:docname="logo newsletter.svg"
   inkscape:version="0.92.1 r15371"
   width="161.26013"
   height="161.27003"><metadata
     id="metadata3750"><rdf:RDF><cc:Work
         rdf:about=""><dc:format>image/svg+xml</dc:format><dc:type
           rdf:resource="http://purl.org/dc/dcmitype/StillImage" /><dc:title></dc:title></cc:Work></rdf:RDF></metadata><defs
     id="defs3748" /><sodipodi:namedview
     pagecolor="#ff64ff"
     bordercolor="#666666"
     borderopacity="1"
     objecttolerance="10"
     gridtolerance="10"
     guidetolerance="10"
     inkscape:pageopacity="0"
     inkscape:pageshadow="2"
     inkscape:window-width="1366"
     inkscape:window-height="704"
     id="namedview3746"
     showgrid="false"
     inkscape:zoom="2.6863631"
     inkscape:cx="50.84996"
     inkscape:cy="52.607524"
     inkscape:window-x="0"
     inkscape:window-y="27"
     inkscape:window-maximized="1"
     inkscape:current-layer="Calque_1" /><style
     type="text/css"
     id="style3735">
	.st0{fill:#FFFFFF;}
	.st1{fill:none;}
</style><g
     id="g3743"
     transform="translate(-21.679998,-14.469967)"><path
       class="st0"
       d="m 102.26,175.74 c 44.47,0.01 80.61,-36.09 80.68,-80.6 0.07,-44.48 -36.03,-80.63 -80.56,-80.67 -44.64,-0.04 -80.69,35.98 -80.7,80.6 -0.01,44.53 36.08,80.66 80.58,80.67 z"
       id="path3737"
       inkscape:connector-curvature="0"
       style="fill:#ffffff" /><path
       class="st1"
       d="M 102.26,175.74 C 57.76,175.73 21.67,139.6 21.68,95.08 c 0.01,-44.62 36.07,-80.64 80.7,-80.6 44.53,0.04 80.64,36.18 80.56,80.67 -0.07,44.5 -36.21,80.6 -80.68,80.59 z m 33.82,-60.2 c 0.17,0.5 0.29,0.86 0.42,1.22 2.95,8.25 5.91,16.5 8.84,24.75 0.15,0.43 0.32,1.16 0.11,1.36 -1.24,1.19 -2.58,2.27 -4.03,3.51 -3.6,-10.05 -7.12,-19.87 -10.64,-29.69 -8.5,1.84 -16.83,3.64 -25.2,5.45 -3.05,-9.5 -6.07,-18.88 -9.1,-28.28 -18.47,4.59 -36.78,9.14 -55.33,13.75 14.33,8.01 28.42,15.88 42.5,23.75 14.08,7.87 28.15,15.74 42.3,23.65 -3.04,1.51 -9.3,3.1 -14.73,3.91 -8.32,1.23 -16.59,0.87 -24.68,-1.33 -21.55,-5.86 -36.46,-19.31 -44.62,-40.06 -1.13,-2.88 -2.6,-4.8 -5.37,-6.04 -2.34,-1.05 -4.51,-2.47 -6.82,-3.76 2.46,-4.42 4.9,-8.72 7.25,-13.06 0.46,-0.85 0.72,-1.85 0.86,-2.82 0.29,-2.14 0.32,-4.32 0.68,-6.45 3.04,-18.36 12.23,-32.86 27.43,-43.58 0.51,-0.36 0.97,-0.89 1.29,-1.44 2.34,-4.13 4.64,-8.29 6.95,-12.44 0.18,-0.32 0.33,-0.65 0.55,-1.08 -29.7,11.09 -54.07,46.38 -43.81,86.66 10.63,41.74 54.99,65.93 96.51,50.9 40.01,-14.48 59.84,-59.72 42.28,-99.13 -17.78,-39.9 -61.64,-51.94 -93.78,-38.96 0.08,0.09 0.14,0.2 0.23,0.25 3.34,1.87 6.66,3.75 10.02,5.57 0.38,0.21 0.97,0.19 1.42,0.09 9.69,-2.21 19.44,-2.43 29.05,0.03 24.63,6.31 40.54,21.86 47.95,46.15 0.46,1.52 0.73,3.11 1.15,4.94 C 138.48,68.2 111.49,53.22 84.2,38.06 c 8.4,26.17 16.7,52.01 24.99,77.83 19.09,-4.12 37.98,-8.21 57.09,-12.33 -0.32,1.74 -0.63,3.28 -0.86,4.83 -0.1,0.65 -0.4,0.91 -1.01,1.04 -3.63,0.76 -7.25,1.55 -10.87,2.34 -5.78,1.24 -11.55,2.49 -17.46,3.77 z M 77.14,33.6 C 64.25,56.73 51.49,79.63 38.62,102.73 57.51,98.04 76.14,93.42 94.86,88.77 88.96,70.38 83.09,52.11 77.14,33.6 Z"
       id="path3739"
       inkscape:connector-curvature="0"
       style="fill:none" /><path
       class="st0"
       d="m 136.08,115.54 c 5.91,-1.28 11.68,-2.53 17.45,-3.78 3.62,-0.78 7.24,-1.57 10.87,-2.34 0.61,-0.13 0.92,-0.38 1.01,-1.04 0.23,-1.55 0.54,-3.09 0.86,-4.83 -19.11,4.13 -38,8.21 -57.09,12.33 C 100.9,90.07 92.6,64.23 84.2,38.06 c 27.29,15.16 54.28,30.14 81.56,45.29 -0.42,-1.83 -0.69,-3.42 -1.15,-4.94 C 157.21,54.12 141.3,38.57 116.66,32.26 107.05,29.8 97.3,30.01 87.61,32.23 c -0.45,0.1 -1.04,0.12 -1.42,-0.09 -3.36,-1.82 -6.69,-3.7 -10.02,-5.57 -0.09,-0.05 -0.15,-0.16 -0.23,-0.25 32.13,-12.98 75.99,-0.93 93.78,38.96 17.56,39.4 -2.27,84.64 -42.28,99.13 -41.52,15.03 -85.87,-9.16 -96.51,-50.9 -10.27,-40.29 14.1,-75.58 43.8,-86.67 -0.22,0.43 -0.37,0.76 -0.55,1.08 -2.31,4.15 -4.61,8.31 -6.95,12.44 -0.31,0.55 -0.77,1.07 -1.29,1.44 -15.2,10.72 -24.39,25.22 -27.43,43.58 -0.35,2.13 -0.38,4.31 -0.68,6.45 -0.13,0.96 -0.4,1.97 -0.86,2.82 -2.35,4.34 -4.79,8.64 -7.25,13.06 2.31,1.29 4.48,2.71 6.82,3.76 2.77,1.24 4.24,3.16 5.37,6.04 8.16,20.75 23.08,34.2 44.62,40.06 8.09,2.2 16.36,2.56 24.68,1.33 5.43,-0.8 11.69,-2.4 14.73,-3.91 C 111.79,147.08 97.72,139.21 83.64,131.34 69.55,123.47 55.46,115.6 41.14,107.59 59.7,103 78.01,98.45 96.49,93.86 c 3.02,9.4 6.04,18.78 9.1,28.28 8.37,-1.81 16.7,-3.61 25.2,-5.45 3.52,9.83 7.04,19.65 10.64,29.69 1.45,-1.24 2.8,-2.32 4.03,-3.51 0.21,-0.2 0.04,-0.93 -0.11,-1.36 -2.93,-8.26 -5.89,-16.5 -8.84,-24.75 -0.14,-0.35 -0.26,-0.72 -0.43,-1.22 z"
       id="path3741"
       inkscape:connector-curvature="0"
       style="fill:#ffffff" /></g></svg>