<?xml version="1.0" encoding="UTF-8" standalone="no"?>
<!-- Generator: Adobe Illustrator 23.0.1, SVG Export Plug-In . SVG Version: 6.00 Build 0)  -->

<svg
   xmlns:dc="http://purl.org/dc/elements/1.1/"
   xmlns:cc="http://creativecommons.org/ns#"
   xmlns:rdf="http://www.w3.org/1999/02/22-rdf-syntax-ns#"
   xmlns:svg="http://www.w3.org/2000/svg"
   xmlns="http://www.w3.org/2000/svg"
   xmlns:sodipodi="http://sodipodi.sourceforge.net/DTD/sodipodi-0.dtd"
   xmlns:inkscape="http://www.inkscape.org/namespaces/inkscape"
   version="1.1"
   id="Calque_1"
   x="0px"
   y="0px"
   viewBox="0 0 595.28 375"
   style="enable-background:new 0 0 595.28 375;"
   xml:space="preserve"
   sodipodi:docname="shadow_logo.svg"
   inkscape:version="0.92.1 r15371"><metadata
     id="metadata61699"><rdf:RDF><cc:Work
         rdf:about=""><dc:format>image/svg+xml</dc:format><dc:type
           rdf:resource="http://purl.org/dc/dcmitype/StillImage" /><dc:title></dc:title></cc:Work></rdf:RDF></metadata><defs
     id="defs61697" /><sodipodi:namedview
     pagecolor="#ffffff"
     bordercolor="#666666"
     borderopacity="1"
     objecttolerance="10"
     gridtolerance="10"
     guidetolerance="10"
     inkscape:pageopacity="0"
     inkscape:pageshadow="2"
     inkscape:window-width="834"
     inkscape:window-height="480"
     id="namedview61695"
     showgrid="false"
     inkscape:zoom="0.62933333"
     inkscape:cx="297.64001"
     inkscape:cy="187.5"
     inkscape:window-x="0"
     inkscape:window-y="27"
     inkscape:window-maximized="0"
     inkscape:current-layer="Calque_1" /><style
     type="text/css"
     id="style61522">
	.st0{opacity:0.75;}
	.st1{fill:#0E6760;}
	.st2{fill:#FFFFFF;}
</style><g
     id="g61692"><g
       class="st0"
       id="g61604"><path
         class="st1"
         d="M407.03,36.75c0,2.25,0,4.51,0,6.76c0,7.77-0.01,7.73-7.67,9.78c-5.05,1.35-10.02,3.03-15.12,4.14    c-3.64,0.79-5.21,3.13-6.45,6.24c-5.32,13.36-10.64,26.72-16.11,40.02c-5.81,14.13-11.86,28.17-17.69,42.3    c-8.92,21.59-17.85,43.18-26.51,64.88c-1.45,3.64-3.44,4.89-7.08,4.82c-6.75-0.12-13.52-0.22-20.27,0.07    c-3.59,0.15-5.51-1.36-6.69-4.44c-4.07-10.64-8.83-20.98-13.41-31.4c-9.69-22.06-18.87-44.34-29.03-66.2    c-1.1-2.37-1.71-4.97-2.86-7.31c-1.9-3.83-3-4.1-7.2-2.81c-10.18,3.13-20.37,6.24-30.58,9.27c-4.89,1.45-4.98,1.35-5.05-3.74    c-0.08-6.38,0.17-12.77-0.11-19.14c-0.15-3.42,1.09-5.13,4.28-5.99c5.78-1.56,11.46-3.5,17.21-5.14    c8.78-2.51,17.49-5.21,26.24-7.81c13.61-4.03,27.32-7.75,40.75-12.38c2.86-0.99,3.74-0.4,3.79,2.76    c0.11,7.69,0.02,15.39,0.03,23.09c0,1.43-0.26,2.43-2,2.77c-5.51,1.07-10.58,3.62-16.14,4.7c-5.54,1.08-6.13,2.52-3.91,7.6    c7.02,16.06,14.13,32.09,21.15,48.15c3.96,9.07,7.82,18.19,11.75,27.28c0.41,0.94,0.26,2.53,1.81,2.42    c1.47-0.11,1.2-1.68,1.6-2.63c5.66-13.43,11.32-26.87,16.9-40.33c5.71-13.79,11.36-27.61,17-41.43    c2.46-6.04,4.85-12.11,7.26-18.17c0.54-1.35,1.85-2.86,0.87-4.13c-1.15-1.51-2.72-0.02-4.07,0.37    c-6.82,1.99-13.62,4.05-20.46,5.99c-4.11,1.17-4.36,1.02-4.4-2.86c-0.06-7.13,0.14-14.27-0.01-21.39c-0.05-2.6,1.03-3.63,3.33-4.3    c9.15-2.69,18.27-5.53,27.4-8.29c16.61-5.02,33.24-9.99,49.83-15.09c2-0.62,4.06-0.71,6.04-1.23c5.55-1.48,5.55-1.51,5.57,4.37    c0.01,2.82,0,5.63,0,8.45C407.05,36.75,407.04,36.75,407.03,36.75z"
         id="path61524" /><path
         class="st1"
         d="M413.22,268.97c-36.16,0.29-66.18-26.65-70.7-61.91c-3.72-28.97,11.87-57.59,35.54-70.35    c3.81-2.06,3.85-2.09,5.02,2.01c0.91,3.22,2.72,6.67,2.2,9.69c-0.51,2.94-4.8,3.71-7.2,5.75c-17.64,15.03-25.25,33.94-19.99,56.63    c5.47,23.59,21.12,38.47,44.72,42.73c34.36,6.2,60.4-18.43,65.23-45.95c4.68-26.66-12.1-58.89-47.27-64.86    c-0.55-0.09-1.13-0.05-1.68-0.16c-2.83-0.59-6.45,1.3-8.39-1.43c-1.54-2.15-1.78-5.25-2.51-7.95c-1.45-5.34-1.43-5.21,3.97-5.38    c30.66-0.93,63.29,20.61,70.06,57.86c7.24,39.88-19.64,77.02-60.19,82.85C418.87,268.96,415.65,268.85,413.22,268.97z"
         id="path61526" /><path
         class="st1"
         d="M187.24,268.97c-35.23,0.15-64.69-25.76-69.99-60.54c-5.37-35.22,18.27-74.72,61.58-80.28    c8.55-1.1,17.18-0.6,25.65,1.68c2.45,0.66,2.66,1.49,1.75,3.39c-0.32,0.67-0.71,1.32-0.98,2.02c-2.21,5.7-4.66,8.73-12.44,7.66    c-18.58-2.55-34.6,4.07-47.27,18.1c-28.29,31.31-12.73,81.85,28.26,91.85c28.67,7,57.5-9.1,66.69-37.39    c1.05-3.22,2.2-5.39,6.04-4.46c0.71,0.17,1.49,0.03,2.25,0.03c8.47,0.02,8.63,0.07,6.01,8.3    C244.94,250.18,217.21,269.21,187.24,268.97z"
         id="path61528" /><path
         class="st1"
         d="M236.6,206.45c-9.76,0-19.53,0.1-29.28-0.06c-2.9-0.05-4.92,0.92-6.88,2.95c-6.8,7.08-15.08,8.55-23.34,3.46    c-3.17-1.95-5.67-5.67-6.32-9.47c-1.67-9.78,0.07-17.38,11.98-21.5c3.07-1.06,5.01-2.37,6.48-5.41    c7.15-14.77,14.62-29.38,21.97-44.05c2.18-4.34,4.33-8.7,6.54-13.03c1.36-2.65,9.84-6.28,12.69-5.51    c1.58,0.43,4.01,5.41,3.48,7.81c-0.44,1.97-1.04,3.89-2.06,5.76c-6.03,10.98-11.43,22.27-16.82,33.57    c-3.77,7.9-8.04,15.57-11.97,23.4c-2.42,4.81-1.74,5.83,3.69,5.84c17.64,0.03,35.29,0.12,52.93-0.05    c3.45-0.03,5.67,0.59,6.67,4.19c0.64,2.32,1.89,4.47,2.85,6.7c2.18,5.06,2.03,5.39-3.32,5.44c-8.07,0.07-16.14,0-24.21,0    c-1.69,0-3.38,0-5.07,0C236.6,206.46,236.6,206.45,236.6,206.45z"
         id="path61530" /><path
         class="st1"
         d="M429.62,198.12c0.32,6.33-2.31,11.4-7.43,14.76c-6.44,4.22-13.32,3.56-19.67-0.27    c-6.51-3.93-9.29-15.32-5.09-22.03c2.6-4.15,2.29-7.68,1.09-12.02c-4.9-17.61-9.66-35.25-14.35-52.92    c-2.38-8.97-4.51-18.07-7.58-26.86c-0.98-2.81-0.88-5.36,0.31-8.14c2.79-6.51,5.31-13.14,7.94-19.71c0.21-0.52,0.5-1.18,1.11-1.04    c0.31,0.07,0.57,0.78,0.7,1.25c4.55,16.77,9.02,33.57,13.62,50.33c5.19,18.89,10.53,37.74,15.68,56.64    c0.68,2.5,2.22,3.51,4.29,4.67C426.14,186.09,429.95,190.9,429.62,198.12z"
         id="path61532" /><path
         class="st1"
         d="M294.38,315.6c0,3,0.09,6.01-0.02,9.01c-0.24,6.42-4.77,11.57-11.1,12.71c-1.48,0.27-2.97,0.55-4.46,0.6    c-10.15,0.35-19.07-3.82-18.29-16.52c0.33-5.23,0.06-10.51,0.03-15.76c-0.01-2.17,0.65-4.46-2.91-4.93    c-2.09-0.27-1.53-2.72-1.38-4.31c0.18-1.88,1.85-1.54,3.07-1.56c3.56-0.06,7.12-0.04,10.67,0.01c1.62,0.03,3.58-0.4,3.88,2.1    c0.23,1.95,0.34,3.92-2.35,4.18c-2.17,0.21-2.07,1.72-2.06,3.25c0.05,6.38-0.05,12.77,0.17,19.14c0.16,4.76,3.19,7.34,8.06,7.37    c4.08,0.03,7.61-2.93,7.79-7.19c0.26-6.56,0.08-13.13,0.11-19.7c0.01-1.44-0.28-2.63-1.99-2.83c-2.67-0.31-2.59-2.27-2.48-4.19    c0.15-2.57,2.2-2.19,3.78-2.19c8.59-0.02,17.18,0.06,25.77,0.08c7.32,0.02,14.64-0.05,21.96,0.04c2.14,0.03,4.57-0.76,6.26,1.46    c0.32,0.41,0.82,0.7,1.41,0.26c4.69-3.51,10.09-1.06,15.12-1.76c1.32-0.18,2.58-0.02,3.13,1.64c0.64,1.92,0.1,3.87-1.5,4.29    c-3.46,0.91-2.96,3.38-2.96,5.73c-0.01,6.38,0.05,12.76,0.1,19.14c0.02,2.55-0.59,5.26,2.99,6.36c1.65,0.51,1.46,2.47,1.09,3.96    c-0.44,1.74-1.99,1.43-3.25,1.45c-3.56,0.04-7.13,0.04-10.7-0.02c-1.42-0.02-3.05,0.39-3.63-1.71c-0.53-1.92-0.17-3.66,1.69-4.15    c2.8-0.74,2.48-2.32,2.44-4.61c-0.12-6.89,0.26-13.79,0.38-20.69c0.04-2.5-0.03-4.93-3.48-5.35c-2.34-0.29-3.82,0-3.21,2.79    c0.45,2.05-0.11,3.45-2.34,3.46c-1.91,0-4.56,0.83-5.03-2.09c-0.45-2.79-1.86-3.42-4.28-2.88c-2.39,0.53-3.2,2.01-3.15,4.47    c0.14,6.74,0.03,13.49,0.06,20.24c0.01,1.93,0.23,3.8,2.67,4.3c1.95,0.4,1.91,2.04,2.06,3.53c0.27,2.63-0.55,3.22-3.37,2.79    c-3.66-0.56-7.49,0.08-11.22-0.21c-1.14-0.09-2.32,2.02-2.96,0.29c-0.66-1.8-1.41-4.64,0.77-5.54c3.62-1.49,3.11-4.21,3.13-6.94    c0.04-6.19-0.03-12.39,0.06-18.58c0.03-2.09-0.35-3.81-2.64-4.26c-2.26-0.45-4.07,0.18-4.49,2.81c-0.52,3.23-3.02,2.18-4.88,2.13    c-1.94-0.05-3.35-1.33-2.77-3.27c0.77-2.59-0.34-2.93-2.42-2.94c-2.28-0.01-3.41,0.76-3.3,3.29c0.17,3.75,0.04,7.5,0.04,11.26    C294.45,315.6,294.41,315.6,294.38,315.6z"
         id="path61534" /><path
         class="st1"
         d="M119.74,337.46c-4.5,0-9,0.03-13.5-0.02c-1.44-0.02-3.21,0.2-3.27-2.06c-0.04-1.62-0.61-3.63,1.78-4.08    c2.43-0.45,2.75-1.97,2.73-4.05c-0.08-6.94-0.01-13.88-0.07-20.82c-0.03-3.38-2.63-6.47-5.39-6.63c-1.91-0.11-5.21,2.73-5.98,5.08    c-3.13,9.51-6.27,19.01-9.4,28.51c-0.98,2.97-1.65,5.12-6.21,4.43c-3.17-0.48-4.51-1-5.74-3.79c-3.22-7.34-4.55-15.29-7.67-22.62    c-1.59-3.74-1.24-8.6-5.99-10.78c-1.48-0.68-0.94-2.72-0.74-4.17c0.25-1.83,1.77-1.58,3.06-1.58c3.19,0.02,6.38-0.1,9.56,0.12    c3.43,0.24,4.8,3.11,2.38,5.37c-1.49,1.39-2.06,2.43-1.52,4.22c1.74,5.72,3.49,11.44,5.25,17.15c0.27,0.89,0.56,2.04,1.63,2.01    c1.03-0.03,1.31-1.28,1.55-2.07c1.68-5.54,3.29-11.09,4.8-16.68c0.37-1.37,0.27-2.62-0.66-4.15c-2.56-4.19-1.38-6.22,3.59-5.95    c3.92,0.21,8.07-1.57,11.86,1.43c1.04,0.83,2.67-1.61,4.65-1.51c4.67,0.24,9.37,0.03,14.06,0.01c4.31-0.02,8.63,0.03,12.94-0.06    c2.37-0.05,3.43,0.88,3.24,3.32c-0.13,1.68,0.02,3.38-0.05,5.06c-0.06,1.53,0.77,3.78-1.85,3.82c-1.92,0.03-4.8,1.37-5.08-2.43    c-0.16-2.14-1.7-2.68-3.59-2.69c-0.75,0-1.49-0.13-2.24-0.18c-7.4-0.5-8.1,0.26-7.52,7.57c0.16,2.02,0.66,3.12,2.96,2.97    c2.43-0.16,4.89,0.14,7.31-0.05c2.77-0.22,3.61,1.02,3.59,3.58c-0.02,2.34-0.79,3.46-3.29,3.31c-2.43-0.15-4.88,0.11-7.31-0.03    c-2.46-0.13-3.3,0.96-3.23,3.29c0.3,10.08-1.21,8.05,7.74,8.3c2.99,0.09,6.2,0.56,5.97-4.17c-0.06-1.2,1.2-1.26,2.14-0.93    c1.47,0.51,3.54-0.41,4.31,1.75c0.12,0.34,0.05,0.75,0.1,1.12c1.1,8.68,0.82,9-7.9,9c-3,0-6,0-9,0    C119.74,337.42,119.74,337.44,119.74,337.46z"
         id="path61536" /><path
         class="st1"
         d="M441.71,320.5c0,4.68,0.04,9.37-0.02,14.05c-0.04,2.82-0.71,3.66-4.25,3.25c-4.25-0.48-6.11-2.39-7.9-5.7    c-3.45-6.39-7.2-12.63-10.9-18.88c-0.43-0.74-1.45-1.79-1.96-1.68c-1.02,0.23-0.47,1.5-0.49,2.29c-0.11,4.31-0.11,8.62-0.15,12.93    c-0.02,2.28-0.21,4.48,2.98,5.07c2.47,0.45,1.4,2.69,1.39,4.18c-0.01,1.6-1.46,1.39-2.54,1.39c-4.12,0.02-8.25,0.01-12.37-0.01    c-1.31-0.01-2.74,0.1-2.73-1.89c0.01-1.46-0.45-3.35,1.58-3.65c2.59-0.39,2.75-2.01,2.74-4.02c-0.03-7.68-0.02-15.37-0.01-23.05    c0-1.74,0.02-3.29-2.3-3.77c-2.14-0.44-2.2-2.3-1.97-4.05c0.33-2.41,2.23-2.09,3.89-2.13c1.12-0.03,2.27,0.1,3.37-0.06    c5.38-0.78,8.06,2.15,10.27,6.62c2.53,5.11,5.7,9.9,8.64,14.8c0.58,0.96,1.42,1.86,2.73,1.43c1.38-0.46,1.16-1.8,1.13-2.84    c-0.1-3.55-0.34-7.1-0.49-10.66c-0.06-1.51-0.88-2.38-2.18-2.96c-2.18-0.97-2.23-3.03-1.85-4.79c0.5-2.3,2.74-1.5,4.27-1.56    c3.36-0.13,6.74-0.05,10.11,0.04c1.43,0.04,3.22-0.26,3.47,1.9c0.2,1.65,0.58,3.6-1.59,4.25c-2.95,0.88-2.72,3.24-2.76,5.44    c-0.07,4.68-0.02,9.37-0.02,14.05C441.79,320.5,441.75,320.5,441.71,320.5z"
         id="path61538" /><path
         class="st1"
         d="M220.27,316.15c0-3.18,0.01-6.37,0-9.55c-0.01-2.42,0.34-4.89-2.95-5.83c-1.9-0.55-1.24-2.49-1.11-3.89    c0.16-1.62,1.37-2.05,2.83-2.03c6.92,0.07,13.91-0.4,20.76,0.34c9.8,1.05,14.06,11.41,8.12,19.09c-1.51,1.95-1.51,3.09,0.19,4.66    c1.86,1.71,2.8,3.98,2.99,6.46c0.2,2.55-0.38,5.15,2.64,6.79c1.33,0.72,0.99,2.78,0.48,4.18c-0.47,1.3-1.87,0.95-2.94,1.03    c-6.61,0.44-9.6-2.53-10.21-10.18c-0.16-2,0.65-4.67-1.59-5.54c-2.35-0.92-5.1-0.93-7.69-1.06c-1.15-0.06-1.88,0.94-2.24,2.16    c-1.08,3.67-0.29,6.29,3.14,8.69c1.87,1.31,1.16,2.89,1.07,4.51c-0.12,2.26-1.88,1.44-2.95,1.47c-3.93,0.09-7.86,0.01-11.79-0.04    c-1.08-0.01-2.45,0.21-2.73-1.26c-0.28-1.42-0.83-3.4,0.87-4.03c3.64-1.35,3.02-4.24,3.05-6.97c0.03-2.99,0.01-5.99,0.01-8.98    C220.24,316.15,220.25,316.15,220.27,316.15z M229.24,307.4c0.04,6.2,0.04,6.2,4.26,6.16c5.99-0.06,7.9-1.35,7.98-5.4    c0.1-4.45-2.33-6.41-7.85-6.38C229.37,301.8,229.21,302,229.24,307.4z"
         id="path61540" /><path
         class="st1"
         d="M213.25,315.96c0.03,7.7-2.12,14.15-8.5,19.15c-2.89,2.27-5.88,2.19-8.9,2.54    c-13.38,1.55-20.4-8.23-20.9-18.04c-0.32-6.22,0.15-12.17,3.73-17.76c5.56-8.68,21.71-10.35,29.95-1.14    C212.84,305.42,212.89,310.57,213.25,315.96z M184.04,316.35c0,1.69-0.18,3.39,0.03,5.05c0.56,4.41,3.78,8.55,7.19,9.17    c4.37,0.8,8.07-0.17,10.8-4.11c3.58-5.17,2.98-17.87-1.24-22.31c-4.36-4.6-12.06-3.3-15.13,2.39    C184,309.67,183.77,312.95,184.04,316.35z"
         id="path61542" /><path
         class="st1"
         d="M380.73,294.55c9.22-0.96,16.72,6.16,18.94,15.68c2.34,10.06-1.66,21.18-9.85,25.34    c-12.5,6.35-26.05-0.92-27.78-14.34c-0.36-2.77,0-5.63-0.15-8.43C361.26,301.68,371.69,293.54,380.73,294.55z M370.71,315.57    c0.04,2.64-0.14,5.09,0.5,7.48c1.15,4.29,4.65,7.45,8.53,7.76c4.99,0.39,7.48-1.43,9.86-6.41c2.66-5.53,1.56-10.81-0.01-16.33    c-1.22-4.25-4-6.14-7.95-6.66c-3.95-0.52-7.43,1.8-9.46,5.6C370.68,309.82,370.84,312.8,370.71,315.57z"
         id="path61544" /><path
         class="st1"
         d="M249.17,186.11c-0.75,0-1.5-0.06-2.24,0.01c-3.33,0.34-5.25-0.41-6.29-4.31    c-2.61-9.76-8.01-18.03-15.64-24.73c-1.85-1.63-2.29-3-0.9-5.24c1.57-2.51,2.71-5.3,3.95-8c0.84-1.84,1.87-2,3.39-0.74    c12.63,10.48,21.08,23.55,24.73,39.64c0.51,2.25,0.34,3.65-2.5,3.38c-1.48-0.14-2.99-0.03-4.49-0.03    C249.17,186.1,249.17,186.11,249.17,186.11z"
         id="path61546" /><path
         class="st1"
         d="M156.5,337.46c-4.13,0-8.26,0.02-12.39-0.01c-1.22-0.01-2.85,0.52-3.05-1.45c-0.14-1.42-0.64-3.51,1.1-3.93    c3.76-0.92,3.13-3.71,3.16-6.23c0.08-6.38,0-12.76,0.08-19.14c0.03-2.56-0.07-4.89-2.88-6.1c-2.1-0.9-1.6-2.81-1.3-4.38    c0.35-1.78,2.04-1.34,3.26-1.36c3.36-0.05,6.73-0.06,10.09,0.11c1.42,0.07,3.15,0.11,3.53,2.08c0.35,1.84,0.01,3.52-2.03,4.03    c-1.87,0.47-2.24,1.59-2.24,3.28c0.03,7.69,0.06,15.39-0.08,23.08c-0.05,2.5,0.9,3.38,3.27,3.22c1.49-0.1,3.01-0.1,4.5,0.02    c2.43,0.19,3.91-0.41,4.02-3.25c0.07-1.74,0.68-3.19,3.24-2.49c2.07,0.57,4.22,0.51,3.8,3.54c-0.05,0.37,0.02,0.75,0.04,1.12    c0.28,7.9,0.28,7.89-7.68,7.82c-2.82-0.03-5.63,0-8.45,0C156.5,337.42,156.5,337.44,156.5,337.46z"
         id="path61548" /><path
         class="st1"
         d="M515.14,322.97c-0.51-7.82,4.08-13.29,9.42-14.87c8.61-2.55,16.67,4.88,15.27,13.89    c-0.33,2.13-1.62,2.17-3.18,2.17c-4.49,0-8.97,0.09-13.46-0.02c-2.5-0.06-2.83,1.17-2.34,3.16c1.09,4.45,6.26,7.38,11.01,6.17    c1.08-0.27,2.16-0.66,3.13-1.19c1.71-0.95,2.23,0.09,2.93,1.36c0.83,1.51-0.28,2.04-1.16,2.5c-9.61,5.01-21.15,0.16-21.63-11.49    C515.12,324.09,515.14,323.53,515.14,322.97z M527.37,320.46c0-0.01,0-0.01,0-0.02c1.68,0,3.36-0.08,5.03,0.02    c1.89,0.11,2.67-0.32,2.19-2.5c-0.75-3.45-2.54-5.73-5.61-6.06c-3.34-0.36-5.67,1.42-7.32,4.12c-2.12,3.45-1.61,4.36,2.36,4.43    C525.13,320.48,526.25,320.46,527.37,320.46z"
         id="path61550" /><path
         class="st1"
         d="M451.83,314.98c0-5.07-0.15-10.14,0.08-15.19c0.08-1.76-1.66-4.9,2.51-4.76c4.14,0.14,2.3,3.31,2.33,5.04    c0.21,9.38,0.09,18.76,0.11,28.14c0,2.19-0.49,4.5,2.11,5.9c0.99,0.53,1.26,1.93,0.68,3.02c-0.62,1.16-1.91,1.01-3.01,0.94    c-3.27-0.19-4.63-1.65-4.73-5.65c-0.14-5.81-0.04-11.63-0.04-17.45C451.86,314.98,451.85,314.98,451.83,314.98z"
         id="path61552" /><path
         class="st1"
         d="M484.05,314.56c0-4.5-0.2-9.01,0.09-13.49c0.15-2.26-2.16-6.42,3.04-5.98c3.94,0.33,1.98,3.71,2.03,5.6    c0.22,9.18,0.08,18.36,0.12,27.55c0.01,2.14-0.65,4.47,2.05,5.84c0.81,0.41,1.32,1.87,0.8,3c-0.57,1.22-1.88,1.11-2.96,1.06    c-3.27-0.15-4.88-1.84-5.05-6.15c-0.23-5.8-0.06-11.62-0.06-17.42C484.08,314.56,484.06,314.56,484.05,314.56z"
         id="path61554" /><path
         class="st1"
         d="M500.49,314.3c0-4.86-0.15-9.72,0.08-14.56c0.08-1.76-1.62-4.77,2.53-4.79c4.29-0.02,2.92,3.02,2.95,5.11    c0.1,9.15,0,18.3,0.07,27.46c0.02,2.43-0.68,4.89,1.98,6.98c1.7,1.34,0.23,3.57-2.13,3.56c-3.47-0.02-5.28-1.95-5.4-6.39    c-0.16-5.79-0.04-11.58-0.04-17.37C500.51,314.3,500.5,314.3,500.49,314.3z"
         id="path61556" /><path
         class="st1"
         d="M473.43,323.13c0,3.73-0.05,7.47,0.02,11.2c0.04,1.88-0.08,3.24-2.58,3.15c-2.03-0.07-3.04-0.49-3-2.82    c0.12-7.84,0.09-15.68,0.03-23.51c-0.02-2.09,0.62-3.03,2.87-3c2.4,0.03,2.68,1.28,2.63,3.23c-0.1,3.92-0.03,7.84-0.03,11.76    C473.4,323.13,473.42,323.13,473.43,323.13z"
         id="path61558" /><path
         class="st1"
         d="M125.06,284.53c1.09,0,1.84-0.06,2.58,0.02c0.71,0.07,1.4,0.28,2.1,0.43c-0.34,0.64-0.53,1.63-1.06,1.87    c-2.11,0.97-3.69,2.52-5.16,4.2c-1.99,2.27-4.55,1.19-6.84,1.17c-1.53-0.01-0.74-1.26-0.37-2.02    C118.13,286.39,120.59,283.56,125.06,284.53z"
         id="path61560" /><path
         class="st1"
         d="M474.49,299.2c-0.24,2.4-1.49,3.53-3.68,3.55c-1.93,0.02-3.3-0.91-3.49-2.89c-0.21-2.25,1.05-3.45,3.26-3.65    C472.89,296,473.96,297.34,474.49,299.2z"
         id="path61562" /><path
         class="st1"
         d="M407.03,36.75c0,2.25,0,4.51,0,6.76c0,7.77-0.01,7.73-7.67,9.78c-5.05,1.35-10.02,3.03-15.12,4.14    c-3.64,0.79-5.21,3.13-6.45,6.24c-5.32,13.36-10.64,26.72-16.11,40.02c-5.81,14.13-11.86,28.17-17.69,42.3    c-8.92,21.59-17.85,43.18-26.51,64.88c-1.45,3.64-3.44,4.89-7.08,4.82c-6.75-0.12-13.52-0.22-20.27,0.07    c-3.59,0.15-5.51-1.36-6.69-4.44c-4.07-10.64-8.83-20.98-13.41-31.4c-9.69-22.06-18.87-44.34-29.03-66.2    c-1.1-2.37-1.71-4.97-2.86-7.31c-1.9-3.83-3-4.1-7.2-2.81c-10.18,3.13-20.37,6.24-30.58,9.27c-4.89,1.45-4.98,1.35-5.05-3.74    c-0.08-6.38,0.17-12.77-0.11-19.14c-0.15-3.42,1.09-5.13,4.28-5.99c5.78-1.56,11.46-3.5,17.21-5.14    c8.78-2.51,17.49-5.21,26.24-7.81c13.61-4.03,27.32-7.75,40.75-12.38c2.86-0.99,3.74-0.4,3.79,2.76    c0.11,7.69,0.02,15.39,0.03,23.09c0,1.43-0.26,2.43-2,2.77c-5.51,1.07-10.58,3.62-16.14,4.7c-5.54,1.08-6.13,2.52-3.91,7.6    c7.02,16.06,14.13,32.09,21.15,48.15c3.96,9.07,7.82,18.19,11.75,27.28c0.41,0.94,0.26,2.53,1.81,2.42    c1.47-0.11,1.2-1.68,1.6-2.63c5.66-13.43,11.32-26.87,16.9-40.33c5.71-13.79,11.36-27.61,17-41.43    c2.46-6.04,4.85-12.11,7.26-18.17c0.54-1.35,1.85-2.86,0.87-4.13c-1.15-1.51-2.72-0.02-4.07,0.37    c-6.82,1.99-13.62,4.05-20.46,5.99c-4.11,1.17-4.36,1.02-4.4-2.86c-0.06-7.13,0.14-14.27-0.01-21.39c-0.05-2.6,1.03-3.63,3.33-4.3    c9.15-2.69,18.27-5.53,27.4-8.29c16.61-5.02,33.24-9.99,49.83-15.09c2-0.62,4.06-0.71,6.04-1.23c5.55-1.48,5.55-1.51,5.57,4.37    c0.01,2.82,0,5.63,0,8.45C407.05,36.75,407.04,36.75,407.03,36.75z"
         id="path61564" /><path
         class="st1"
         d="M413.22,268.97c-36.16,0.29-66.18-26.65-70.7-61.91c-3.72-28.97,11.87-57.59,35.54-70.35    c3.81-2.06,3.85-2.09,5.02,2.01c0.91,3.22,2.72,6.67,2.2,9.69c-0.51,2.94-4.8,3.71-7.2,5.75c-17.64,15.03-25.25,33.94-19.99,56.63    c5.47,23.59,21.12,38.47,44.72,42.73c34.36,6.2,60.4-18.43,65.23-45.95c4.68-26.66-12.1-58.89-47.27-64.86    c-0.55-0.09-1.13-0.05-1.68-0.16c-2.83-0.59-6.45,1.3-8.39-1.43c-1.54-2.15-1.78-5.25-2.51-7.95c-1.45-5.34-1.43-5.21,3.97-5.38    c30.66-0.93,63.29,20.61,70.06,57.86c7.24,39.88-19.64,77.02-60.19,82.85C418.87,268.96,415.65,268.85,413.22,268.97z"
         id="path61566" /><path
         class="st1"
         d="M187.24,268.97c-35.23,0.15-64.69-25.76-69.99-60.54c-5.37-35.22,18.27-74.72,61.58-80.28    c8.55-1.1,17.18-0.6,25.65,1.68c2.45,0.66,2.66,1.49,1.75,3.39c-0.32,0.67-0.71,1.32-0.98,2.02c-2.21,5.7-4.66,8.73-12.44,7.66    c-18.58-2.55-34.6,4.07-47.27,18.1c-28.29,31.31-12.73,81.85,28.26,91.85c28.67,7,57.5-9.1,66.69-37.39    c1.05-3.22,2.2-5.39,6.04-4.46c0.71,0.17,1.49,0.03,2.25,0.03c8.47,0.02,8.63,0.07,6.01,8.3    C244.94,250.18,217.21,269.21,187.24,268.97z"
         id="path61568" /><path
         class="st1"
         d="M236.6,206.45c-9.76,0-19.53,0.1-29.28-0.06c-2.9-0.05-4.92,0.92-6.88,2.95c-6.8,7.08-15.08,8.55-23.34,3.46    c-3.17-1.95-5.67-5.67-6.32-9.47c-1.67-9.78,0.07-17.38,11.98-21.5c3.07-1.06,5.01-2.37,6.48-5.41    c7.15-14.77,14.62-29.38,21.97-44.05c2.18-4.34,4.33-8.7,6.54-13.03c1.36-2.65,9.84-6.28,12.69-5.51    c1.58,0.43,4.01,5.41,3.48,7.81c-0.44,1.97-1.04,3.89-2.06,5.76c-6.03,10.98-11.43,22.27-16.82,33.57    c-3.77,7.9-8.04,15.57-11.97,23.4c-2.42,4.81-1.74,5.83,3.69,5.84c17.64,0.03,35.29,0.12,52.93-0.05    c3.45-0.03,5.67,0.59,6.67,4.19c0.64,2.32,1.89,4.47,2.85,6.7c2.18,5.06,2.03,5.39-3.32,5.44c-8.07,0.07-16.14,0-24.21,0    c-1.69,0-3.38,0-5.07,0C236.6,206.46,236.6,206.45,236.6,206.45z"
         id="path61570" /><path
         class="st1"
         d="M429.62,198.12c0.32,6.33-2.31,11.4-7.43,14.76c-6.44,4.22-13.32,3.56-19.67-0.27    c-6.51-3.93-9.29-15.32-5.09-22.03c2.6-4.15,2.29-7.68,1.09-12.02c-4.9-17.61-9.66-35.25-14.35-52.92    c-2.38-8.97-4.51-18.07-7.58-26.86c-0.98-2.81-0.88-5.36,0.31-8.14c2.79-6.51,5.31-13.14,7.94-19.71c0.21-0.52,0.5-1.18,1.11-1.04    c0.31,0.07,0.57,0.78,0.7,1.25c4.55,16.77,9.02,33.57,13.62,50.33c5.19,18.89,10.53,37.74,15.68,56.64    c0.68,2.5,2.22,3.51,4.29,4.67C426.14,186.09,429.95,190.9,429.62,198.12z"
         id="path61572" /><path
         class="st1"
         d="M294.38,315.6c0,3,0.09,6.01-0.02,9.01c-0.24,6.42-4.77,11.57-11.1,12.71c-1.48,0.27-2.97,0.55-4.46,0.6    c-10.15,0.35-19.07-3.82-18.29-16.52c0.33-5.23,0.06-10.51,0.03-15.76c-0.01-2.17,0.65-4.46-2.91-4.93    c-2.09-0.27-1.53-2.72-1.38-4.31c0.18-1.88,1.85-1.54,3.07-1.56c3.56-0.06,7.12-0.04,10.67,0.01c1.62,0.03,3.58-0.4,3.88,2.1    c0.23,1.95,0.34,3.92-2.35,4.18c-2.17,0.21-2.07,1.72-2.06,3.25c0.05,6.38-0.05,12.77,0.17,19.14c0.16,4.76,3.19,7.34,8.06,7.37    c4.08,0.03,7.61-2.93,7.79-7.19c0.26-6.56,0.08-13.13,0.11-19.7c0.01-1.44-0.28-2.63-1.99-2.83c-2.67-0.31-2.59-2.27-2.48-4.19    c0.15-2.57,2.2-2.19,3.78-2.19c8.59-0.02,17.18,0.06,25.77,0.08c7.32,0.02,14.64-0.05,21.96,0.04c2.14,0.03,4.57-0.76,6.26,1.46    c0.32,0.41,0.82,0.7,1.41,0.26c4.69-3.51,10.09-1.06,15.12-1.76c1.32-0.18,2.58-0.02,3.13,1.64c0.64,1.92,0.1,3.87-1.5,4.29    c-3.46,0.91-2.96,3.38-2.96,5.73c-0.01,6.38,0.05,12.76,0.1,19.14c0.02,2.55-0.59,5.26,2.99,6.36c1.65,0.51,1.46,2.47,1.09,3.96    c-0.44,1.74-1.99,1.43-3.25,1.45c-3.56,0.04-7.13,0.04-10.7-0.02c-1.42-0.02-3.05,0.39-3.63-1.71c-0.53-1.92-0.17-3.66,1.69-4.15    c2.8-0.74,2.48-2.32,2.44-4.61c-0.12-6.89,0.26-13.79,0.38-20.69c0.04-2.5-0.03-4.93-3.48-5.35c-2.34-0.29-3.82,0-3.21,2.79    c0.45,2.05-0.11,3.45-2.34,3.46c-1.91,0-4.56,0.83-5.03-2.09c-0.45-2.79-1.86-3.42-4.28-2.88c-2.39,0.53-3.2,2.01-3.15,4.47    c0.14,6.74,0.03,13.49,0.06,20.24c0.01,1.93,0.23,3.8,2.67,4.3c1.95,0.4,1.91,2.04,2.06,3.53c0.27,2.63-0.55,3.22-3.37,2.79    c-3.66-0.56-7.49,0.08-11.22-0.21c-1.14-0.09-2.32,2.02-2.96,0.29c-0.66-1.8-1.41-4.64,0.77-5.54c3.62-1.49,3.11-4.21,3.13-6.94    c0.04-6.19-0.03-12.39,0.06-18.58c0.03-2.09-0.35-3.81-2.64-4.26c-2.26-0.45-4.07,0.18-4.49,2.81c-0.52,3.23-3.02,2.18-4.88,2.13    c-1.94-0.05-3.35-1.33-2.77-3.27c0.77-2.59-0.34-2.93-2.42-2.94c-2.28-0.01-3.41,0.76-3.3,3.29c0.17,3.75,0.04,7.5,0.04,11.26    C294.45,315.6,294.41,315.6,294.38,315.6z"
         id="path61574" /><path
         class="st1"
         d="M119.74,337.46c-4.5,0-9,0.03-13.5-0.02c-1.44-0.02-3.21,0.2-3.27-2.06c-0.04-1.62-0.61-3.63,1.78-4.08    c2.43-0.45,2.75-1.97,2.73-4.05c-0.08-6.94-0.01-13.88-0.07-20.82c-0.03-3.38-2.63-6.47-5.39-6.63c-1.91-0.11-5.21,2.73-5.98,5.08    c-3.13,9.51-6.27,19.01-9.4,28.51c-0.98,2.97-1.65,5.12-6.21,4.43c-3.17-0.48-4.51-1-5.74-3.79c-3.22-7.34-4.55-15.29-7.67-22.62    c-1.59-3.74-1.24-8.6-5.99-10.78c-1.48-0.68-0.94-2.72-0.74-4.17c0.25-1.83,1.77-1.58,3.06-1.58c3.19,0.02,6.38-0.1,9.56,0.12    c3.43,0.24,4.8,3.11,2.38,5.37c-1.49,1.39-2.06,2.43-1.52,4.22c1.74,5.72,3.49,11.44,5.25,17.15c0.27,0.89,0.56,2.04,1.63,2.01    c1.03-0.03,1.31-1.28,1.55-2.07c1.68-5.54,3.29-11.09,4.8-16.68c0.37-1.37,0.27-2.62-0.66-4.15c-2.56-4.19-1.38-6.22,3.59-5.95    c3.92,0.21,8.07-1.57,11.86,1.43c1.04,0.83,2.67-1.61,4.65-1.51c4.67,0.24,9.37,0.03,14.06,0.01c4.31-0.02,8.63,0.03,12.94-0.06    c2.37-0.05,3.43,0.88,3.24,3.32c-0.13,1.68,0.02,3.38-0.05,5.06c-0.06,1.53,0.77,3.78-1.85,3.82c-1.92,0.03-4.8,1.37-5.08-2.43    c-0.16-2.14-1.7-2.68-3.59-2.69c-0.75,0-1.49-0.13-2.24-0.18c-7.4-0.5-8.1,0.26-7.52,7.57c0.16,2.02,0.66,3.12,2.96,2.97    c2.43-0.16,4.89,0.14,7.31-0.05c2.77-0.22,3.61,1.02,3.59,3.58c-0.02,2.34-0.79,3.46-3.29,3.31c-2.43-0.15-4.88,0.11-7.31-0.03    c-2.46-0.13-3.3,0.96-3.23,3.29c0.3,10.08-1.21,8.05,7.74,8.3c2.99,0.09,6.2,0.56,5.97-4.17c-0.06-1.2,1.2-1.26,2.14-0.93    c1.47,0.51,3.54-0.41,4.31,1.75c0.12,0.34,0.05,0.75,0.1,1.12c1.1,8.68,0.82,9-7.9,9c-3,0-6,0-9,0    C119.74,337.42,119.74,337.44,119.74,337.46z"
         id="path61576" /><path
         class="st1"
         d="M441.71,320.5c0,4.68,0.04,9.37-0.02,14.05c-0.04,2.82-0.71,3.66-4.25,3.25c-4.25-0.48-6.11-2.39-7.9-5.7    c-3.45-6.39-7.2-12.63-10.9-18.88c-0.43-0.74-1.45-1.79-1.96-1.68c-1.02,0.23-0.47,1.5-0.49,2.29c-0.11,4.31-0.11,8.62-0.15,12.93    c-0.02,2.28-0.21,4.48,2.98,5.07c2.47,0.45,1.4,2.69,1.39,4.18c-0.01,1.6-1.46,1.39-2.54,1.39c-4.12,0.02-8.25,0.01-12.37-0.01    c-1.31-0.01-2.74,0.1-2.73-1.89c0.01-1.46-0.45-3.35,1.58-3.65c2.59-0.39,2.75-2.01,2.74-4.02c-0.03-7.68-0.02-15.37-0.01-23.05    c0-1.74,0.02-3.29-2.3-3.77c-2.14-0.44-2.2-2.3-1.97-4.05c0.33-2.41,2.23-2.09,3.89-2.13c1.12-0.03,2.27,0.1,3.37-0.06    c5.38-0.78,8.06,2.15,10.27,6.62c2.53,5.11,5.7,9.9,8.64,14.8c0.58,0.96,1.42,1.86,2.73,1.43c1.38-0.46,1.16-1.8,1.13-2.84    c-0.1-3.55-0.34-7.1-0.49-10.66c-0.06-1.51-0.88-2.38-2.18-2.96c-2.18-0.97-2.23-3.03-1.85-4.79c0.5-2.3,2.74-1.5,4.27-1.56    c3.36-0.13,6.74-0.05,10.11,0.04c1.43,0.04,3.22-0.26,3.47,1.9c0.2,1.65,0.58,3.6-1.59,4.25c-2.95,0.88-2.72,3.24-2.76,5.44    c-0.07,4.68-0.02,9.37-0.02,14.05C441.79,320.5,441.75,320.5,441.71,320.5z"
         id="path61578" /><path
         class="st1"
         d="M220.27,316.15c0-3.18,0.01-6.37,0-9.55c-0.01-2.42,0.34-4.89-2.95-5.83c-1.9-0.55-1.24-2.49-1.11-3.89    c0.16-1.62,1.37-2.05,2.83-2.03c6.92,0.07,13.91-0.4,20.76,0.34c9.8,1.05,14.06,11.41,8.12,19.09c-1.51,1.95-1.51,3.09,0.19,4.66    c1.86,1.71,2.8,3.98,2.99,6.46c0.2,2.55-0.38,5.15,2.64,6.79c1.33,0.72,0.99,2.78,0.48,4.18c-0.47,1.3-1.87,0.95-2.94,1.03    c-6.61,0.44-9.6-2.53-10.21-10.18c-0.16-2,0.65-4.67-1.59-5.54c-2.35-0.92-5.1-0.93-7.69-1.06c-1.15-0.06-1.88,0.94-2.24,2.16    c-1.08,3.67-0.29,6.29,3.14,8.69c1.87,1.31,1.16,2.89,1.07,4.51c-0.12,2.26-1.88,1.44-2.95,1.47c-3.93,0.09-7.86,0.01-11.79-0.04    c-1.08-0.01-2.45,0.21-2.73-1.26c-0.28-1.42-0.83-3.4,0.87-4.03c3.64-1.35,3.02-4.24,3.05-6.97c0.03-2.99,0.01-5.99,0.01-8.98    C220.24,316.15,220.25,316.15,220.27,316.15z M229.24,307.4c0.04,6.2,0.04,6.2,4.26,6.16c5.99-0.06,7.9-1.35,7.98-5.4    c0.1-4.45-2.33-6.41-7.85-6.38C229.37,301.8,229.21,302,229.24,307.4z"
         id="path61580" /><path
         class="st1"
         d="M213.25,315.96c0.03,7.7-2.12,14.15-8.5,19.15c-2.89,2.27-5.88,2.19-8.9,2.54    c-13.38,1.55-20.4-8.23-20.9-18.04c-0.32-6.22,0.15-12.17,3.73-17.76c5.56-8.68,21.71-10.35,29.95-1.14    C212.84,305.42,212.89,310.57,213.25,315.96z M184.04,316.35c0,1.69-0.18,3.39,0.03,5.05c0.56,4.41,3.78,8.55,7.19,9.17    c4.37,0.8,8.07-0.17,10.8-4.11c3.58-5.17,2.98-17.87-1.24-22.31c-4.36-4.6-12.06-3.3-15.13,2.39    C184,309.67,183.77,312.95,184.04,316.35z"
         id="path61582" /><path
         class="st1"
         d="M380.73,294.55c9.22-0.96,16.72,6.16,18.94,15.68c2.34,10.06-1.66,21.18-9.85,25.34    c-12.5,6.35-26.05-0.92-27.78-14.34c-0.36-2.77,0-5.63-0.15-8.43C361.26,301.68,371.69,293.54,380.73,294.55z M370.71,315.57    c0.04,2.64-0.14,5.09,0.5,7.48c1.15,4.29,4.65,7.45,8.53,7.76c4.99,0.39,7.48-1.43,9.86-6.41c2.66-5.53,1.56-10.81-0.01-16.33    c-1.22-4.25-4-6.14-7.95-6.66c-3.95-0.52-7.43,1.8-9.46,5.6C370.68,309.82,370.84,312.8,370.71,315.57z"
         id="path61584" /><path
         class="st1"
         d="M249.17,186.11c-0.75,0-1.5-0.06-2.24,0.01c-3.33,0.34-5.25-0.41-6.29-4.31    c-2.61-9.76-8.01-18.03-15.64-24.73c-1.85-1.63-2.29-3-0.9-5.24c1.57-2.51,2.71-5.3,3.95-8c0.84-1.84,1.87-2,3.39-0.74    c12.63,10.48,21.08,23.55,24.73,39.64c0.51,2.25,0.34,3.65-2.5,3.38c-1.48-0.14-2.99-0.03-4.49-0.03    C249.17,186.1,249.17,186.11,249.17,186.11z"
         id="path61586" /><path
         class="st1"
         d="M156.5,337.46c-4.13,0-8.26,0.02-12.39-0.01c-1.22-0.01-2.85,0.52-3.05-1.45c-0.14-1.42-0.64-3.51,1.1-3.93    c3.76-0.92,3.13-3.71,3.16-6.23c0.08-6.38,0-12.76,0.08-19.14c0.03-2.56-0.07-4.89-2.88-6.1c-2.1-0.9-1.6-2.81-1.3-4.38    c0.35-1.78,2.04-1.34,3.26-1.36c3.36-0.05,6.73-0.06,10.09,0.11c1.42,0.07,3.15,0.11,3.53,2.08c0.35,1.84,0.01,3.52-2.03,4.03    c-1.87,0.47-2.24,1.59-2.24,3.28c0.03,7.69,0.06,15.39-0.08,23.08c-0.05,2.5,0.9,3.38,3.27,3.22c1.49-0.1,3.01-0.1,4.5,0.02    c2.43,0.19,3.91-0.41,4.02-3.25c0.07-1.74,0.68-3.19,3.24-2.49c2.07,0.57,4.22,0.51,3.8,3.54c-0.05,0.37,0.02,0.75,0.04,1.12    c0.28,7.9,0.28,7.89-7.68,7.82c-2.82-0.03-5.63,0-8.45,0C156.5,337.42,156.5,337.44,156.5,337.46z"
         id="path61588" /><path
         class="st1"
         d="M515.14,322.97c-0.51-7.82,4.08-13.29,9.42-14.87c8.61-2.55,16.67,4.88,15.27,13.89    c-0.33,2.13-1.62,2.17-3.18,2.17c-4.49,0-8.97,0.09-13.46-0.02c-2.5-0.06-2.83,1.17-2.34,3.16c1.09,4.45,6.26,7.38,11.01,6.17    c1.08-0.27,2.16-0.66,3.13-1.19c1.71-0.95,2.23,0.09,2.93,1.36c0.83,1.51-0.28,2.04-1.16,2.5c-9.61,5.01-21.15,0.16-21.63-11.49    C515.12,324.09,515.14,323.53,515.14,322.97z M527.37,320.46c0-0.01,0-0.01,0-0.02c1.68,0,3.36-0.08,5.03,0.02    c1.89,0.11,2.67-0.32,2.19-2.5c-0.75-3.45-2.54-5.73-5.61-6.06c-3.34-0.36-5.67,1.42-7.32,4.12c-2.12,3.45-1.61,4.36,2.36,4.43    C525.13,320.48,526.25,320.46,527.37,320.46z"
         id="path61590" /><path
         class="st1"
         d="M451.83,314.98c0-5.07-0.15-10.14,0.08-15.19c0.08-1.76-1.66-4.9,2.51-4.76c4.14,0.14,2.3,3.31,2.33,5.04    c0.21,9.38,0.09,18.76,0.11,28.14c0,2.19-0.49,4.5,2.11,5.9c0.99,0.53,1.26,1.93,0.68,3.02c-0.62,1.16-1.91,1.01-3.01,0.94    c-3.27-0.19-4.63-1.65-4.73-5.65c-0.14-5.81-0.04-11.63-0.04-17.45C451.86,314.98,451.85,314.98,451.83,314.98z"
         id="path61592" /><path
         class="st1"
         d="M484.05,314.56c0-4.5-0.2-9.01,0.09-13.49c0.15-2.26-2.16-6.42,3.04-5.98c3.94,0.33,1.98,3.71,2.03,5.6    c0.22,9.18,0.08,18.36,0.12,27.55c0.01,2.14-0.65,4.47,2.05,5.84c0.81,0.41,1.32,1.87,0.8,3c-0.57,1.22-1.88,1.11-2.96,1.06    c-3.27-0.15-4.88-1.84-5.05-6.15c-0.23-5.8-0.06-11.62-0.06-17.42C484.08,314.56,484.06,314.56,484.05,314.56z"
         id="path61594" /><path
         class="st1"
         d="M500.49,314.3c0-4.86-0.15-9.72,0.08-14.56c0.08-1.76-1.62-4.77,2.53-4.79c4.29-0.02,2.92,3.02,2.95,5.11    c0.1,9.15,0,18.3,0.07,27.46c0.02,2.43-0.68,4.89,1.98,6.98c1.7,1.34,0.23,3.57-2.13,3.56c-3.47-0.02-5.28-1.95-5.4-6.39    c-0.16-5.79-0.04-11.58-0.04-17.37C500.51,314.3,500.5,314.3,500.49,314.3z"
         id="path61596" /><path
         class="st1"
         d="M473.43,323.13c0,3.73-0.05,7.47,0.02,11.2c0.04,1.88-0.08,3.24-2.58,3.15c-2.03-0.07-3.04-0.49-3-2.82    c0.12-7.84,0.09-15.68,0.03-23.51c-0.02-2.09,0.62-3.03,2.87-3c2.4,0.03,2.68,1.28,2.63,3.23c-0.1,3.92-0.03,7.84-0.03,11.76    C473.4,323.13,473.42,323.13,473.43,323.13z"
         id="path61598" /><path
         class="st1"
         d="M125.06,284.53c1.09,0,1.84-0.06,2.58,0.02c0.71,0.07,1.4,0.28,2.1,0.43c-0.34,0.64-0.53,1.63-1.06,1.87    c-2.11,0.97-3.69,2.52-5.16,4.2c-1.99,2.27-4.55,1.19-6.84,1.17c-1.53-0.01-0.74-1.26-0.37-2.02    C118.13,286.39,120.59,283.56,125.06,284.53z"
         id="path61600" /><path
         class="st1"
         d="M474.49,299.2c-0.24,2.4-1.49,3.53-3.68,3.55c-1.93,0.02-3.3-0.91-3.49-2.89c-0.21-2.25,1.05-3.45,3.26-3.65    C472.89,296,473.96,297.34,474.49,299.2z"
         id="path61602" /></g><g
       id="g61690"><g
         id="g61646"><path
           class="st2"
           d="M405.03,34.75c0,2.25,0,4.51,0,6.76c0,7.77-0.01,7.73-7.67,9.78c-5.05,1.35-10.02,3.03-15.12,4.14     c-3.64,0.79-5.21,3.13-6.45,6.24c-5.32,13.36-10.64,26.72-16.11,40.02c-5.81,14.13-11.86,28.17-17.69,42.3     c-8.92,21.59-17.85,43.18-26.51,64.88c-1.45,3.64-3.44,4.89-7.08,4.82c-6.75-0.12-13.52-0.22-20.27,0.07     c-3.59,0.15-5.51-1.36-6.69-4.44c-4.07-10.64-8.83-20.98-13.41-31.4c-9.69-22.06-18.87-44.34-29.03-66.2     c-1.1-2.37-1.71-4.97-2.86-7.31c-1.9-3.83-3-4.1-7.2-2.81c-10.18,3.13-20.37,6.24-30.58,9.27c-4.89,1.45-4.98,1.35-5.05-3.74     c-0.08-6.38,0.17-12.77-0.11-19.14c-0.15-3.42,1.09-5.13,4.28-5.99c5.78-1.56,11.46-3.5,17.21-5.14     c8.78-2.51,17.49-5.21,26.24-7.81c13.61-4.03,27.32-7.75,40.75-12.38c2.86-0.99,3.74-0.4,3.79,2.76     c0.11,7.69,0.02,15.39,0.03,23.09c0,1.43-0.26,2.43-2,2.77c-5.51,1.07-10.58,3.62-16.14,4.7c-5.54,1.08-6.13,2.52-3.91,7.6     c7.02,16.06,14.13,32.09,21.15,48.15c3.96,9.07,7.82,18.19,11.75,27.28c0.41,0.94,0.26,2.53,1.81,2.42     c1.47-0.11,1.2-1.68,1.6-2.63c5.66-13.43,11.32-26.87,16.9-40.33c5.71-13.79,11.36-27.61,17-41.43     c2.46-6.04,4.85-12.11,7.26-18.17c0.54-1.35,1.85-2.86,0.87-4.13c-1.15-1.51-2.72-0.02-4.07,0.37     c-6.82,1.99-13.62,4.05-20.46,5.99c-4.11,1.17-4.36,1.02-4.4-2.86c-0.06-7.13,0.14-14.27-0.01-21.39     c-0.05-2.6,1.03-3.63,3.33-4.3c9.15-2.69,18.27-5.53,27.4-8.29c16.61-5.02,33.24-9.99,49.83-15.09c2-0.62,4.06-0.71,6.04-1.23     c5.55-1.48,5.55-1.51,5.57,4.37c0.01,2.82,0,5.63,0,8.45C405.05,34.75,405.04,34.75,405.03,34.75z"
           id="path61606" /><path
           class="st2"
           d="M411.22,266.97c-36.16,0.29-66.18-26.65-70.7-61.91c-3.72-28.97,11.87-57.59,35.54-70.35     c3.81-2.06,3.85-2.09,5.02,2.01c0.91,3.22,2.72,6.67,2.2,9.69c-0.51,2.94-4.8,3.71-7.2,5.75     c-17.64,15.03-25.25,33.94-19.99,56.63c5.47,23.59,21.12,38.47,44.72,42.73c34.36,6.2,60.4-18.43,65.23-45.95     c4.68-26.66-12.1-58.89-47.27-64.86c-0.55-0.09-1.13-0.05-1.68-0.16c-2.83-0.59-6.45,1.3-8.39-1.43     c-1.54-2.15-1.78-5.25-2.51-7.95c-1.45-5.34-1.43-5.21,3.97-5.38c30.66-0.93,63.29,20.61,70.06,57.86     c7.24,39.88-19.64,77.02-60.19,82.85C416.87,266.96,413.65,266.85,411.22,266.97z"
           id="path61608" /><path
           class="st2"
           d="M185.24,266.97c-35.23,0.15-64.69-25.76-69.99-60.54c-5.37-35.22,18.27-74.72,61.58-80.28     c8.55-1.1,17.18-0.6,25.65,1.68c2.45,0.66,2.66,1.49,1.75,3.39c-0.32,0.67-0.71,1.32-0.98,2.02c-2.21,5.7-4.66,8.73-12.44,7.66     c-18.58-2.55-34.6,4.07-47.27,18.1c-28.29,31.31-12.73,81.85,28.26,91.85c28.67,7,57.5-9.1,66.69-37.39     c1.05-3.22,2.2-5.39,6.04-4.46c0.71,0.17,1.49,0.03,2.25,0.03c8.47,0.02,8.63,0.07,6.01,8.3     C242.94,248.18,215.21,267.21,185.24,266.97z"
           id="path61610" /><path
           class="st2"
           d="M234.6,204.45c-9.76,0-19.53,0.1-29.28-0.06c-2.9-0.05-4.92,0.92-6.88,2.95c-6.8,7.08-15.08,8.55-23.34,3.46     c-3.17-1.95-5.67-5.67-6.32-9.47c-1.67-9.78,0.07-17.38,11.98-21.5c3.07-1.06,5.01-2.37,6.48-5.41     c7.15-14.77,14.62-29.38,21.97-44.05c2.18-4.34,4.33-8.7,6.54-13.03c1.36-2.65,9.84-6.28,12.69-5.51     c1.58,0.43,4.01,5.41,3.48,7.81c-0.44,1.97-1.04,3.89-2.06,5.76c-6.03,10.98-11.43,22.27-16.82,33.57     c-3.77,7.9-8.04,15.57-11.97,23.4c-2.42,4.81-1.74,5.83,3.69,5.84c17.64,0.03,35.29,0.12,52.93-0.05     c3.45-0.03,5.67,0.59,6.67,4.19c0.64,2.32,1.89,4.47,2.85,6.7c2.18,5.06,2.03,5.39-3.32,5.44c-8.07,0.07-16.14,0-24.21,0     c-1.69,0-3.38,0-5.07,0C234.6,204.46,234.6,204.45,234.6,204.45z"
           id="path61612" /><path
           class="st2"
           d="M427.62,196.12c0.32,6.33-2.31,11.4-7.43,14.76c-6.44,4.22-13.32,3.56-19.67-0.27     c-6.51-3.93-9.29-15.32-5.09-22.03c2.6-4.15,2.29-7.68,1.09-12.02c-4.9-17.61-9.66-35.25-14.35-52.92     c-2.38-8.97-4.51-18.07-7.58-26.86c-0.98-2.81-0.88-5.36,0.31-8.14c2.79-6.51,5.31-13.14,7.94-19.71     c0.21-0.52,0.5-1.18,1.11-1.04c0.31,0.07,0.57,0.78,0.7,1.25c4.55,16.77,9.02,33.57,13.62,50.33     c5.19,18.89,10.53,37.74,15.68,56.64c0.68,2.5,2.22,3.51,4.29,4.67C424.14,184.09,427.95,188.9,427.62,196.12z"
           id="path61614" /><path
           class="st2"
           d="M292.38,313.6c0,3,0.09,6.01-0.02,9.01c-0.24,6.42-4.77,11.57-11.1,12.71c-1.48,0.27-2.97,0.55-4.46,0.6     c-10.15,0.35-19.07-3.82-18.29-16.52c0.33-5.23,0.06-10.51,0.03-15.76c-0.01-2.17,0.65-4.46-2.91-4.93     c-2.09-0.27-1.53-2.72-1.38-4.31c0.18-1.88,1.85-1.54,3.07-1.56c3.56-0.06,7.12-0.04,10.67,0.01c1.62,0.03,3.58-0.4,3.88,2.1     c0.23,1.95,0.34,3.92-2.35,4.18c-2.17,0.21-2.07,1.72-2.06,3.25c0.05,6.38-0.05,12.77,0.17,19.14c0.16,4.76,3.19,7.34,8.06,7.37     c4.08,0.03,7.61-2.93,7.79-7.19c0.26-6.56,0.08-13.13,0.11-19.7c0.01-1.44-0.28-2.63-1.99-2.83c-2.67-0.31-2.59-2.27-2.48-4.19     c0.15-2.57,2.2-2.19,3.78-2.19c8.59-0.02,17.18,0.06,25.77,0.08c7.32,0.02,14.64-0.05,21.96,0.04c2.14,0.03,4.57-0.76,6.26,1.46     c0.32,0.41,0.82,0.7,1.41,0.26c4.69-3.51,10.09-1.06,15.12-1.76c1.32-0.18,2.58-0.02,3.13,1.64c0.64,1.92,0.1,3.87-1.5,4.29     c-3.46,0.91-2.96,3.38-2.96,5.73c-0.01,6.38,0.05,12.76,0.1,19.14c0.02,2.55-0.59,5.26,2.99,6.36c1.65,0.51,1.46,2.47,1.09,3.96     c-0.44,1.74-1.99,1.43-3.25,1.45c-3.56,0.04-7.13,0.04-10.7-0.02c-1.42-0.02-3.05,0.39-3.63-1.71c-0.53-1.92-0.17-3.66,1.69-4.15     c2.8-0.74,2.48-2.32,2.44-4.61c-0.12-6.89,0.26-13.79,0.38-20.69c0.04-2.5-0.03-4.93-3.48-5.35c-2.34-0.29-3.82,0-3.21,2.79     c0.45,2.05-0.11,3.45-2.34,3.46c-1.91,0-4.56,0.83-5.03-2.09c-0.45-2.79-1.86-3.42-4.28-2.88c-2.39,0.53-3.2,2.01-3.15,4.47     c0.14,6.74,0.03,13.49,0.06,20.24c0.01,1.93,0.23,3.8,2.67,4.3c1.95,0.4,1.91,2.04,2.06,3.53c0.27,2.63-0.55,3.22-3.37,2.79     c-3.66-0.56-7.49,0.08-11.22-0.21c-1.14-0.09-2.32,2.02-2.96,0.29c-0.66-1.8-1.41-4.64,0.77-5.54c3.62-1.49,3.11-4.21,3.13-6.94     c0.04-6.19-0.03-12.39,0.06-18.58c0.03-2.09-0.35-3.81-2.64-4.26c-2.26-0.45-4.07,0.18-4.49,2.81c-0.52,3.23-3.02,2.18-4.88,2.13     c-1.94-0.05-3.35-1.33-2.77-3.27c0.77-2.59-0.34-2.93-2.42-2.94c-2.28-0.01-3.41,0.76-3.3,3.29c0.17,3.75,0.04,7.5,0.04,11.26     C292.45,313.6,292.41,313.6,292.38,313.6z"
           id="path61616" /><path
           class="st2"
           d="M117.74,335.46c-4.5,0-9,0.03-13.5-0.02c-1.44-0.02-3.21,0.2-3.27-2.06c-0.04-1.62-0.61-3.63,1.78-4.08     c2.43-0.45,2.75-1.97,2.73-4.05c-0.08-6.94-0.01-13.88-0.07-20.82c-0.03-3.38-2.63-6.47-5.39-6.63     c-1.91-0.11-5.21,2.73-5.98,5.08c-3.13,9.51-6.27,19.01-9.4,28.51c-0.98,2.97-1.65,5.12-6.21,4.43c-3.17-0.48-4.51-1-5.74-3.79     c-3.22-7.34-4.55-15.29-7.67-22.62c-1.59-3.74-1.24-8.6-5.99-10.78c-1.48-0.68-0.94-2.72-0.74-4.17     c0.25-1.83,1.77-1.58,3.06-1.58c3.19,0.02,6.38-0.1,9.56,0.12c3.43,0.24,4.8,3.11,2.38,5.37c-1.49,1.39-2.06,2.43-1.52,4.22     c1.74,5.72,3.49,11.44,5.25,17.15c0.27,0.89,0.56,2.04,1.63,2.01c1.03-0.03,1.31-1.28,1.55-2.07c1.68-5.54,3.29-11.09,4.8-16.68     c0.37-1.37,0.27-2.62-0.66-4.15c-2.56-4.19-1.38-6.22,3.59-5.95c3.92,0.21,8.07-1.57,11.86,1.43c1.04,0.83,2.67-1.61,4.65-1.51     c4.67,0.24,9.37,0.03,14.06,0.01c4.31-0.02,8.63,0.03,12.94-0.06c2.37-0.05,3.43,0.88,3.24,3.32c-0.13,1.68,0.02,3.38-0.05,5.06     c-0.06,1.53,0.77,3.78-1.85,3.82c-1.92,0.03-4.8,1.37-5.08-2.43c-0.16-2.14-1.7-2.68-3.59-2.69c-0.75,0-1.49-0.13-2.24-0.18     c-7.4-0.5-8.1,0.26-7.52,7.57c0.16,2.02,0.66,3.12,2.96,2.97c2.43-0.16,4.89,0.14,7.31-0.05c2.77-0.22,3.61,1.02,3.59,3.58     c-0.02,2.34-0.79,3.46-3.29,3.31c-2.43-0.15-4.88,0.11-7.31-0.03c-2.46-0.13-3.3,0.96-3.23,3.29c0.3,10.08-1.21,8.05,7.74,8.3     c2.99,0.09,6.2,0.56,5.97-4.17c-0.06-1.2,1.2-1.26,2.14-0.93c1.47,0.51,3.54-0.41,4.31,1.75c0.12,0.34,0.05,0.75,0.1,1.12     c1.1,8.68,0.82,9-7.9,9c-3,0-6,0-9,0C117.74,335.42,117.74,335.44,117.74,335.46z"
           id="path61618" /><path
           class="st2"
           d="M439.71,318.5c0,4.68,0.04,9.37-0.02,14.05c-0.04,2.82-0.71,3.66-4.25,3.25c-4.25-0.48-6.11-2.39-7.9-5.7     c-3.45-6.39-7.2-12.63-10.9-18.88c-0.43-0.74-1.45-1.79-1.96-1.68c-1.02,0.23-0.47,1.5-0.49,2.29     c-0.11,4.31-0.11,8.62-0.15,12.93c-0.02,2.28-0.21,4.48,2.98,5.07c2.47,0.45,1.4,2.69,1.39,4.18c-0.01,1.6-1.46,1.39-2.54,1.39     c-4.12,0.02-8.25,0.01-12.37-0.01c-1.31-0.01-2.74,0.1-2.73-1.89c0.01-1.46-0.45-3.35,1.58-3.65c2.59-0.39,2.75-2.01,2.74-4.02     c-0.03-7.68-0.02-15.37-0.01-23.05c0-1.74,0.02-3.29-2.3-3.77c-2.14-0.44-2.2-2.3-1.97-4.05c0.33-2.41,2.23-2.09,3.89-2.13     c1.12-0.03,2.27,0.1,3.37-0.06c5.38-0.78,8.06,2.15,10.27,6.62c2.53,5.11,5.7,9.9,8.64,14.8c0.58,0.96,1.42,1.86,2.73,1.43     c1.38-0.46,1.16-1.8,1.13-2.84c-0.1-3.55-0.34-7.1-0.49-10.66c-0.06-1.51-0.88-2.38-2.18-2.96c-2.18-0.97-2.23-3.03-1.85-4.79     c0.5-2.3,2.74-1.5,4.27-1.56c3.36-0.13,6.74-0.05,10.11,0.04c1.43,0.04,3.22-0.26,3.47,1.9c0.2,1.65,0.58,3.6-1.59,4.25     c-2.95,0.88-2.72,3.24-2.76,5.44c-0.07,4.68-0.02,9.37-0.02,14.05C439.79,318.5,439.75,318.5,439.71,318.5z"
           id="path61620" /><path
           class="st2"
           d="M218.27,314.15c0-3.18,0.01-6.37,0-9.55c-0.01-2.42,0.34-4.89-2.95-5.83c-1.9-0.55-1.24-2.49-1.11-3.89     c0.16-1.62,1.37-2.05,2.83-2.03c6.92,0.07,13.91-0.4,20.76,0.34c9.8,1.05,14.06,11.41,8.12,19.09c-1.51,1.95-1.51,3.09,0.19,4.66     c1.86,1.71,2.8,3.98,2.99,6.46c0.2,2.55-0.38,5.15,2.64,6.79c1.33,0.72,0.99,2.78,0.48,4.18c-0.47,1.3-1.87,0.95-2.94,1.03     c-6.61,0.44-9.6-2.53-10.21-10.18c-0.16-2,0.65-4.67-1.59-5.54c-2.35-0.92-5.1-0.93-7.69-1.06c-1.15-0.06-1.88,0.94-2.24,2.16     c-1.08,3.67-0.29,6.29,3.14,8.69c1.87,1.31,1.16,2.89,1.07,4.51c-0.12,2.26-1.88,1.44-2.95,1.47c-3.93,0.09-7.86,0.01-11.79-0.04     c-1.08-0.01-2.45,0.21-2.73-1.26c-0.28-1.42-0.83-3.4,0.87-4.03c3.64-1.35,3.02-4.24,3.05-6.97c0.03-2.99,0.01-5.99,0.01-8.98     C218.24,314.15,218.25,314.15,218.27,314.15z M227.24,305.4c0.04,6.2,0.04,6.2,4.26,6.16c5.99-0.06,7.9-1.35,7.98-5.4     c0.1-4.45-2.33-6.41-7.85-6.38C227.37,299.8,227.21,300,227.24,305.4z"
           id="path61622" /><path
           class="st2"
           d="M211.25,313.96c0.03,7.7-2.12,14.15-8.5,19.15c-2.89,2.27-5.88,2.19-8.9,2.54     c-13.38,1.55-20.4-8.23-20.9-18.04c-0.32-6.22,0.15-12.17,3.73-17.76c5.56-8.68,21.71-10.35,29.95-1.14     C210.84,303.42,210.89,308.57,211.25,313.96z M182.04,314.35c0,1.69-0.18,3.39,0.03,5.05c0.56,4.41,3.78,8.55,7.19,9.17     c4.37,0.8,8.07-0.17,10.8-4.11c3.58-5.17,2.98-17.87-1.24-22.31c-4.36-4.6-12.06-3.3-15.13,2.39     C182,307.67,181.77,310.95,182.04,314.35z"
           id="path61624" /><path
           class="st2"
           d="M378.73,292.55c9.22-0.96,16.72,6.16,18.94,15.68c2.34,10.06-1.66,21.18-9.85,25.34     c-12.5,6.35-26.05-0.92-27.78-14.34c-0.36-2.77,0-5.63-0.15-8.43C359.26,299.68,369.69,291.54,378.73,292.55z M368.71,313.57     c0.04,2.64-0.14,5.09,0.5,7.48c1.15,4.29,4.65,7.45,8.53,7.76c4.99,0.39,7.48-1.43,9.86-6.41c2.66-5.53,1.56-10.81-0.01-16.33     c-1.22-4.25-4-6.14-7.95-6.66c-3.95-0.52-7.43,1.8-9.46,5.6C368.68,307.82,368.84,310.8,368.71,313.57z"
           id="path61626" /><path
           class="st2"
           d="M247.17,184.11c-0.75,0-1.5-0.06-2.24,0.01c-3.33,0.34-5.25-0.41-6.29-4.31     c-2.61-9.76-8.01-18.03-15.64-24.73c-1.85-1.63-2.29-3-0.9-5.24c1.57-2.51,2.71-5.3,3.95-8c0.84-1.84,1.87-2,3.39-0.74     c12.63,10.48,21.08,23.55,24.73,39.64c0.51,2.25,0.34,3.65-2.5,3.38c-1.48-0.14-2.99-0.03-4.49-0.03     C247.17,184.1,247.17,184.11,247.17,184.11z"
           id="path61628" /><path
           class="st2"
           d="M154.5,335.46c-4.13,0-8.26,0.02-12.39-0.01c-1.22-0.01-2.85,0.52-3.05-1.45c-0.14-1.42-0.64-3.51,1.1-3.93     c3.76-0.92,3.13-3.71,3.16-6.23c0.08-6.38,0-12.76,0.08-19.14c0.03-2.56-0.07-4.89-2.88-6.1c-2.1-0.9-1.6-2.81-1.3-4.38     c0.35-1.78,2.04-1.34,3.26-1.36c3.36-0.05,6.73-0.06,10.09,0.11c1.42,0.07,3.15,0.11,3.53,2.08c0.35,1.84,0.01,3.52-2.03,4.03     c-1.87,0.47-2.24,1.59-2.24,3.28c0.03,7.69,0.06,15.39-0.08,23.08c-0.05,2.5,0.9,3.38,3.27,3.22c1.49-0.1,3.01-0.1,4.5,0.02     c2.43,0.19,3.91-0.41,4.02-3.25c0.07-1.74,0.68-3.19,3.24-2.49c2.07,0.57,4.22,0.51,3.8,3.54c-0.05,0.37,0.02,0.75,0.04,1.12     c0.28,7.9,0.28,7.89-7.68,7.82c-2.82-0.03-5.63,0-8.45,0C154.5,335.42,154.5,335.44,154.5,335.46z"
           id="path61630" /><path
           class="st2"
           d="M513.14,320.97c-0.51-7.82,4.08-13.29,9.42-14.87c8.61-2.55,16.67,4.88,15.27,13.89     c-0.33,2.13-1.62,2.17-3.18,2.17c-4.49,0-8.97,0.09-13.46-0.02c-2.5-0.06-2.83,1.17-2.34,3.16c1.09,4.45,6.26,7.38,11.01,6.17     c1.08-0.27,2.16-0.66,3.13-1.19c1.71-0.95,2.23,0.09,2.93,1.36c0.83,1.51-0.28,2.04-1.16,2.5c-9.61,5.01-21.15,0.16-21.63-11.49     C513.12,322.09,513.14,321.53,513.14,320.97z M525.37,318.46c0-0.01,0-0.01,0-0.02c1.68,0,3.36-0.08,5.03,0.02     c1.89,0.11,2.67-0.32,2.19-2.5c-0.75-3.45-2.54-5.73-5.61-6.06c-3.34-0.36-5.67,1.42-7.32,4.12c-2.12,3.45-1.61,4.36,2.36,4.43     C523.13,318.48,524.25,318.46,525.37,318.46z"
           id="path61632" /><path
           class="st2"
           d="M449.83,312.98c0-5.07-0.15-10.14,0.08-15.19c0.08-1.76-1.66-4.9,2.51-4.76c4.14,0.14,2.3,3.31,2.33,5.04     c0.21,9.38,0.09,18.76,0.11,28.14c0,2.19-0.49,4.5,2.11,5.9c0.99,0.53,1.26,1.93,0.68,3.02c-0.62,1.16-1.91,1.01-3.01,0.94     c-3.27-0.19-4.63-1.65-4.73-5.65c-0.14-5.81-0.04-11.63-0.04-17.45C449.86,312.98,449.85,312.98,449.83,312.98z"
           id="path61634" /><path
           class="st2"
           d="M482.05,312.56c0-4.5-0.2-9.01,0.09-13.49c0.15-2.26-2.16-6.42,3.04-5.98c3.94,0.33,1.98,3.71,2.03,5.6     c0.22,9.18,0.08,18.36,0.12,27.55c0.01,2.14-0.65,4.47,2.05,5.84c0.81,0.41,1.32,1.87,0.8,3c-0.57,1.22-1.88,1.11-2.96,1.06     c-3.27-0.15-4.88-1.84-5.05-6.15c-0.23-5.8-0.06-11.62-0.06-17.42C482.08,312.56,482.06,312.56,482.05,312.56z"
           id="path61636" /><path
           class="st2"
           d="M498.49,312.3c0-4.86-0.15-9.72,0.08-14.56c0.08-1.76-1.62-4.77,2.53-4.79c4.29-0.02,2.92,3.02,2.95,5.11     c0.1,9.15,0,18.3,0.07,27.46c0.02,2.43-0.68,4.89,1.98,6.98c1.7,1.34,0.23,3.57-2.13,3.56c-3.47-0.02-5.28-1.95-5.4-6.39     c-0.16-5.79-0.04-11.58-0.04-17.37C498.51,312.3,498.5,312.3,498.49,312.3z"
           id="path61638" /><path
           class="st2"
           d="M471.43,321.13c0,3.73-0.05,7.47,0.02,11.2c0.04,1.88-0.08,3.24-2.58,3.15c-2.03-0.07-3.04-0.49-3-2.82     c0.12-7.84,0.09-15.68,0.03-23.51c-0.02-2.09,0.62-3.03,2.87-3c2.4,0.03,2.68,1.28,2.63,3.23c-0.1,3.92-0.03,7.84-0.03,11.76     C471.4,321.13,471.42,321.13,471.43,321.13z"
           id="path61640" /><path
           class="st2"
           d="M123.06,282.53c1.09,0,1.84-0.06,2.58,0.02c0.71,0.07,1.4,0.28,2.1,0.43c-0.34,0.64-0.53,1.63-1.06,1.87     c-2.11,0.97-3.69,2.52-5.16,4.2c-1.99,2.27-4.55,1.19-6.84,1.17c-1.53-0.01-0.74-1.26-0.37-2.02     C116.13,284.39,118.59,281.56,123.06,282.53z"
           id="path61642" /><path
           class="st2"
           d="M472.49,297.2c-0.24,2.4-1.49,3.53-3.68,3.55c-1.93,0.02-3.3-0.91-3.49-2.89c-0.21-2.25,1.05-3.45,3.26-3.65     C470.89,294,471.96,295.34,472.49,297.2z"
           id="path61644" /></g><g
         id="g61688"><path
           class="st2"
           d="M405.03,34.75c0,2.25,0,4.51,0,6.76c0,7.77-0.01,7.73-7.67,9.78c-5.05,1.35-10.02,3.03-15.12,4.14     c-3.64,0.79-5.21,3.13-6.45,6.24c-5.32,13.36-10.64,26.72-16.11,40.02c-5.81,14.13-11.86,28.17-17.69,42.3     c-8.92,21.59-17.85,43.18-26.51,64.88c-1.45,3.64-3.44,4.89-7.08,4.82c-6.75-0.12-13.52-0.22-20.27,0.07     c-3.59,0.15-5.51-1.36-6.69-4.44c-4.07-10.64-8.83-20.98-13.41-31.4c-9.69-22.06-18.87-44.34-29.03-66.2     c-1.1-2.37-1.71-4.97-2.86-7.31c-1.9-3.83-3-4.1-7.2-2.81c-10.18,3.13-20.37,6.24-30.58,9.27c-4.89,1.45-4.98,1.35-5.05-3.74     c-0.08-6.38,0.17-12.77-0.11-19.14c-0.15-3.42,1.09-5.13,4.28-5.99c5.78-1.56,11.46-3.5,17.21-5.14     c8.78-2.51,17.49-5.21,26.24-7.81c13.61-4.03,27.32-7.75,40.75-12.38c2.86-0.99,3.74-0.4,3.79,2.76     c0.11,7.69,0.02,15.39,0.03,23.09c0,1.43-0.26,2.43-2,2.77c-5.51,1.07-10.58,3.62-16.14,4.7c-5.54,1.08-6.13,2.52-3.91,7.6     c7.02,16.06,14.13,32.09,21.15,48.15c3.96,9.07,7.82,18.19,11.75,27.28c0.41,0.94,0.26,2.53,1.81,2.42     c1.47-0.11,1.2-1.68,1.6-2.63c5.66-13.43,11.32-26.87,16.9-40.33c5.71-13.79,11.36-27.61,17-41.43     c2.46-6.04,4.85-12.11,7.26-18.17c0.54-1.35,1.85-2.86,0.87-4.13c-1.15-1.51-2.72-0.02-4.07,0.37     c-6.82,1.99-13.62,4.05-20.46,5.99c-4.11,1.17-4.36,1.02-4.4-2.86c-0.06-7.13,0.14-14.27-0.01-21.39     c-0.05-2.6,1.03-3.63,3.33-4.3c9.15-2.69,18.27-5.53,27.4-8.29c16.61-5.02,33.24-9.99,49.83-15.09c2-0.62,4.06-0.71,6.04-1.23     c5.55-1.48,5.55-1.51,5.57,4.37c0.01,2.82,0,5.63,0,8.45C405.05,34.75,405.04,34.75,405.03,34.75z"
           id="path61648" /><path
           class="st2"
           d="M411.22,266.97c-36.16,0.29-66.18-26.65-70.7-61.91c-3.72-28.97,11.87-57.59,35.54-70.35     c3.81-2.06,3.85-2.09,5.02,2.01c0.91,3.22,2.72,6.67,2.2,9.69c-0.51,2.94-4.8,3.71-7.2,5.75     c-17.64,15.03-25.25,33.94-19.99,56.63c5.47,23.59,21.12,38.47,44.72,42.73c34.36,6.2,60.4-18.43,65.23-45.95     c4.68-26.66-12.1-58.89-47.27-64.86c-0.55-0.09-1.13-0.05-1.68-0.16c-2.83-0.59-6.45,1.3-8.39-1.43     c-1.54-2.15-1.78-5.25-2.51-7.95c-1.45-5.34-1.43-5.21,3.97-5.38c30.66-0.93,63.29,20.61,70.06,57.86     c7.24,39.88-19.64,77.02-60.19,82.85C416.87,266.96,413.65,266.85,411.22,266.97z"
           id="path61650" /><path
           class="st2"
           d="M185.24,266.97c-35.23,0.15-64.69-25.76-69.99-60.54c-5.37-35.22,18.27-74.72,61.58-80.28     c8.55-1.1,17.18-0.6,25.65,1.68c2.45,0.66,2.66,1.49,1.75,3.39c-0.32,0.67-0.71,1.32-0.98,2.02c-2.21,5.7-4.66,8.73-12.44,7.66     c-18.58-2.55-34.6,4.07-47.27,18.1c-28.29,31.31-12.73,81.85,28.26,91.85c28.67,7,57.5-9.1,66.69-37.39     c1.05-3.22,2.2-5.39,6.04-4.46c0.71,0.17,1.49,0.03,2.25,0.03c8.47,0.02,8.63,0.07,6.01,8.3     C242.94,248.18,215.21,267.21,185.24,266.97z"
           id="path61652" /><path
           class="st2"
           d="M234.6,204.45c-9.76,0-19.53,0.1-29.28-0.06c-2.9-0.05-4.92,0.92-6.88,2.95c-6.8,7.08-15.08,8.55-23.34,3.46     c-3.17-1.95-5.67-5.67-6.32-9.47c-1.67-9.78,0.07-17.38,11.98-21.5c3.07-1.06,5.01-2.37,6.48-5.41     c7.15-14.77,14.62-29.38,21.97-44.05c2.18-4.34,4.33-8.7,6.54-13.03c1.36-2.65,9.84-6.28,12.69-5.51     c1.58,0.43,4.01,5.41,3.48,7.81c-0.44,1.97-1.04,3.89-2.06,5.76c-6.03,10.98-11.43,22.27-16.82,33.57     c-3.77,7.9-8.04,15.57-11.97,23.4c-2.42,4.81-1.74,5.83,3.69,5.84c17.64,0.03,35.29,0.12,52.93-0.05     c3.45-0.03,5.67,0.59,6.67,4.19c0.64,2.32,1.89,4.47,2.85,6.7c2.18,5.06,2.03,5.39-3.32,5.44c-8.07,0.07-16.14,0-24.21,0     c-1.69,0-3.38,0-5.07,0C234.6,204.46,234.6,204.45,234.6,204.45z"
           id="path61654" /><path
           class="st2"
           d="M427.62,196.12c0.32,6.33-2.31,11.4-7.43,14.76c-6.44,4.22-13.32,3.56-19.67-0.27     c-6.51-3.93-9.29-15.32-5.09-22.03c2.6-4.15,2.29-7.68,1.09-12.02c-4.9-17.61-9.66-35.25-14.35-52.92     c-2.38-8.97-4.51-18.07-7.58-26.86c-0.98-2.81-0.88-5.36,0.31-8.14c2.79-6.51,5.31-13.14,7.94-19.71     c0.21-0.52,0.5-1.18,1.11-1.04c0.31,0.07,0.57,0.78,0.7,1.25c4.55,16.77,9.02,33.57,13.62,50.33     c5.19,18.89,10.53,37.74,15.68,56.64c0.68,2.5,2.22,3.51,4.29,4.67C424.14,184.09,427.95,188.9,427.62,196.12z"
           id="path61656" /><path
           class="st2"
           d="M292.38,313.6c0,3,0.09,6.01-0.02,9.01c-0.24,6.42-4.77,11.57-11.1,12.71c-1.48,0.27-2.97,0.55-4.46,0.6     c-10.15,0.35-19.07-3.82-18.29-16.52c0.33-5.23,0.06-10.51,0.03-15.76c-0.01-2.17,0.65-4.46-2.91-4.93     c-2.09-0.27-1.53-2.72-1.38-4.31c0.18-1.88,1.85-1.54,3.07-1.56c3.56-0.06,7.12-0.04,10.67,0.01c1.62,0.03,3.58-0.4,3.88,2.1     c0.23,1.95,0.34,3.92-2.35,4.18c-2.17,0.21-2.07,1.72-2.06,3.25c0.05,6.38-0.05,12.77,0.17,19.14c0.16,4.76,3.19,7.34,8.06,7.37     c4.08,0.03,7.61-2.93,7.79-7.19c0.26-6.56,0.08-13.13,0.11-19.7c0.01-1.44-0.28-2.63-1.99-2.83c-2.67-0.31-2.59-2.27-2.48-4.19     c0.15-2.57,2.2-2.19,3.78-2.19c8.59-0.02,17.18,0.06,25.77,0.08c7.32,0.02,14.64-0.05,21.96,0.04c2.14,0.03,4.57-0.76,6.26,1.46     c0.32,0.41,0.82,0.7,1.41,0.26c4.69-3.51,10.09-1.06,15.12-1.76c1.32-0.18,2.58-0.02,3.13,1.64c0.64,1.92,0.1,3.87-1.5,4.29     c-3.46,0.91-2.96,3.38-2.96,5.73c-0.01,6.38,0.05,12.76,0.1,19.14c0.02,2.55-0.59,5.26,2.99,6.36c1.65,0.51,1.46,2.47,1.09,3.96     c-0.44,1.74-1.99,1.43-3.25,1.45c-3.56,0.04-7.13,0.04-10.7-0.02c-1.42-0.02-3.05,0.39-3.63-1.71c-0.53-1.92-0.17-3.66,1.69-4.15     c2.8-0.74,2.48-2.32,2.44-4.61c-0.12-6.89,0.26-13.79,0.38-20.69c0.04-2.5-0.03-4.93-3.48-5.35c-2.34-0.29-3.82,0-3.21,2.79     c0.45,2.05-0.11,3.45-2.34,3.46c-1.91,0-4.56,0.83-5.03-2.09c-0.45-2.79-1.86-3.42-4.28-2.88c-2.39,0.53-3.2,2.01-3.15,4.47     c0.14,6.74,0.03,13.49,0.06,20.24c0.01,1.93,0.23,3.8,2.67,4.3c1.95,0.4,1.91,2.04,2.06,3.53c0.27,2.63-0.55,3.22-3.37,2.79     c-3.66-0.56-7.49,0.08-11.22-0.21c-1.14-0.09-2.32,2.02-2.96,0.29c-0.66-1.8-1.41-4.64,0.77-5.54c3.62-1.49,3.11-4.21,3.13-6.94     c0.04-6.19-0.03-12.39,0.06-18.58c0.03-2.09-0.35-3.81-2.64-4.26c-2.26-0.45-4.07,0.18-4.49,2.81c-0.52,3.23-3.02,2.18-4.88,2.13     c-1.94-0.05-3.35-1.33-2.77-3.27c0.77-2.59-0.34-2.93-2.42-2.94c-2.28-0.01-3.41,0.76-3.3,3.29c0.17,3.75,0.04,7.5,0.04,11.26     C292.45,313.6,292.41,313.6,292.38,313.6z"
           id="path61658" /><path
           class="st2"
           d="M117.74,335.46c-4.5,0-9,0.03-13.5-0.02c-1.44-0.02-3.21,0.2-3.27-2.06c-0.04-1.62-0.61-3.63,1.78-4.08     c2.43-0.45,2.75-1.97,2.73-4.05c-0.08-6.94-0.01-13.88-0.07-20.82c-0.03-3.38-2.63-6.47-5.39-6.63     c-1.91-0.11-5.21,2.73-5.98,5.08c-3.13,9.51-6.27,19.01-9.4,28.51c-0.98,2.97-1.65,5.12-6.21,4.43c-3.17-0.48-4.51-1-5.74-3.79     c-3.22-7.34-4.55-15.29-7.67-22.62c-1.59-3.74-1.24-8.6-5.99-10.78c-1.48-0.68-0.94-2.72-0.74-4.17     c0.25-1.83,1.77-1.58,3.06-1.58c3.19,0.02,6.38-0.1,9.56,0.12c3.43,0.24,4.8,3.11,2.38,5.37c-1.49,1.39-2.06,2.43-1.52,4.22     c1.74,5.72,3.49,11.44,5.25,17.15c0.27,0.89,0.56,2.04,1.63,2.01c1.03-0.03,1.31-1.28,1.55-2.07c1.68-5.54,3.29-11.09,4.8-16.68     c0.37-1.37,0.27-2.62-0.66-4.15c-2.56-4.19-1.38-6.22,3.59-5.95c3.92,0.21,8.07-1.57,11.86,1.43c1.04,0.83,2.67-1.61,4.65-1.51     c4.67,0.24,9.37,0.03,14.06,0.01c4.31-0.02,8.63,0.03,12.94-0.06c2.37-0.05,3.43,0.88,3.24,3.32c-0.13,1.68,0.02,3.38-0.05,5.06     c-0.06,1.53,0.77,3.78-1.85,3.82c-1.92,0.03-4.8,1.37-5.08-2.43c-0.16-2.14-1.7-2.68-3.59-2.69c-0.75,0-1.49-0.13-2.24-0.18     c-7.4-0.5-8.1,0.26-7.52,7.57c0.16,2.02,0.66,3.12,2.96,2.97c2.43-0.16,4.89,0.14,7.31-0.05c2.77-0.22,3.61,1.02,3.59,3.58     c-0.02,2.34-0.79,3.46-3.29,3.31c-2.43-0.15-4.88,0.11-7.31-0.03c-2.46-0.13-3.3,0.96-3.23,3.29c0.3,10.08-1.21,8.05,7.74,8.3     c2.99,0.09,6.2,0.56,5.97-4.17c-0.06-1.2,1.2-1.26,2.14-0.93c1.47,0.51,3.54-0.41,4.31,1.75c0.12,0.34,0.05,0.75,0.1,1.12     c1.1,8.68,0.82,9-7.9,9c-3,0-6,0-9,0C117.74,335.42,117.74,335.44,117.74,335.46z"
           id="path61660" /><path
           class="st2"
           d="M439.71,318.5c0,4.68,0.04,9.37-0.02,14.05c-0.04,2.82-0.71,3.66-4.25,3.25c-4.25-0.48-6.11-2.39-7.9-5.7     c-3.45-6.39-7.2-12.63-10.9-18.88c-0.43-0.74-1.45-1.79-1.96-1.68c-1.02,0.23-0.47,1.5-0.49,2.29     c-0.11,4.31-0.11,8.62-0.15,12.93c-0.02,2.28-0.21,4.48,2.98,5.07c2.47,0.45,1.4,2.69,1.39,4.18c-0.01,1.6-1.46,1.39-2.54,1.39     c-4.12,0.02-8.25,0.01-12.37-0.01c-1.31-0.01-2.74,0.1-2.73-1.89c0.01-1.46-0.45-3.35,1.58-3.65c2.59-0.39,2.75-2.01,2.74-4.02     c-0.03-7.68-0.02-15.37-0.01-23.05c0-1.74,0.02-3.29-2.3-3.77c-2.14-0.44-2.2-2.3-1.97-4.05c0.33-2.41,2.23-2.09,3.89-2.13     c1.12-0.03,2.27,0.1,3.37-0.06c5.38-0.78,8.06,2.15,10.27,6.62c2.53,5.11,5.7,9.9,8.64,14.8c0.58,0.96,1.42,1.86,2.73,1.43     c1.38-0.46,1.16-1.8,1.13-2.84c-0.1-3.55-0.34-7.1-0.49-10.66c-0.06-1.51-0.88-2.38-2.18-2.96c-2.18-0.97-2.23-3.03-1.85-4.79     c0.5-2.3,2.74-1.5,4.27-1.56c3.36-0.13,6.74-0.05,10.11,0.04c1.43,0.04,3.22-0.26,3.47,1.9c0.2,1.65,0.58,3.6-1.59,4.25     c-2.95,0.88-2.72,3.24-2.76,5.44c-0.07,4.68-0.02,9.37-0.02,14.05C439.79,318.5,439.75,318.5,439.71,318.5z"
           id="path61662" /><path
           class="st2"
           d="M218.27,314.15c0-3.18,0.01-6.37,0-9.55c-0.01-2.42,0.34-4.89-2.95-5.83c-1.9-0.55-1.24-2.49-1.11-3.89     c0.16-1.62,1.37-2.05,2.83-2.03c6.92,0.07,13.91-0.4,20.76,0.34c9.8,1.05,14.06,11.41,8.12,19.09c-1.51,1.95-1.51,3.09,0.19,4.66     c1.86,1.71,2.8,3.98,2.99,6.46c0.2,2.55-0.38,5.15,2.64,6.79c1.33,0.72,0.99,2.78,0.48,4.18c-0.47,1.3-1.87,0.95-2.94,1.03     c-6.61,0.44-9.6-2.53-10.21-10.18c-0.16-2,0.65-4.67-1.59-5.54c-2.35-0.92-5.1-0.93-7.69-1.06c-1.15-0.06-1.88,0.94-2.24,2.16     c-1.08,3.67-0.29,6.29,3.14,8.69c1.87,1.31,1.16,2.89,1.07,4.51c-0.12,2.26-1.88,1.44-2.95,1.47c-3.93,0.09-7.86,0.01-11.79-0.04     c-1.08-0.01-2.45,0.21-2.73-1.26c-0.28-1.42-0.83-3.4,0.87-4.03c3.64-1.35,3.02-4.24,3.05-6.97c0.03-2.99,0.01-5.99,0.01-8.98     C218.24,314.15,218.25,314.15,218.27,314.15z M227.24,305.4c0.04,6.2,0.04,6.2,4.26,6.16c5.99-0.06,7.9-1.35,7.98-5.4     c0.1-4.45-2.33-6.41-7.85-6.38C227.37,299.8,227.21,300,227.24,305.4z"
           id="path61664" /><path
           class="st2"
           d="M211.25,313.96c0.03,7.7-2.12,14.15-8.5,19.15c-2.89,2.27-5.88,2.19-8.9,2.54     c-13.38,1.55-20.4-8.23-20.9-18.04c-0.32-6.22,0.15-12.17,3.73-17.76c5.56-8.68,21.71-10.35,29.95-1.14     C210.84,303.42,210.89,308.57,211.25,313.96z M182.04,314.35c0,1.69-0.18,3.39,0.03,5.05c0.56,4.41,3.78,8.55,7.19,9.17     c4.37,0.8,8.07-0.17,10.8-4.11c3.58-5.17,2.98-17.87-1.24-22.31c-4.36-4.6-12.06-3.3-15.13,2.39     C182,307.67,181.77,310.95,182.04,314.35z"
           id="path61666" /><path
           class="st2"
           d="M378.73,292.55c9.22-0.96,16.72,6.16,18.94,15.68c2.34,10.06-1.66,21.18-9.85,25.34     c-12.5,6.35-26.05-0.92-27.78-14.34c-0.36-2.77,0-5.63-0.15-8.43C359.26,299.68,369.69,291.54,378.73,292.55z M368.71,313.57     c0.04,2.64-0.14,5.09,0.5,7.48c1.15,4.29,4.65,7.45,8.53,7.76c4.99,0.39,7.48-1.43,9.86-6.41c2.66-5.53,1.56-10.81-0.01-16.33     c-1.22-4.25-4-6.14-7.95-6.66c-3.95-0.52-7.43,1.8-9.46,5.6C368.68,307.82,368.84,310.8,368.71,313.57z"
           id="path61668" /><path
           class="st2"
           d="M247.17,184.11c-0.75,0-1.5-0.06-2.24,0.01c-3.33,0.34-5.25-0.41-6.29-4.31     c-2.61-9.76-8.01-18.03-15.64-24.73c-1.85-1.63-2.29-3-0.9-5.24c1.57-2.51,2.71-5.3,3.95-8c0.84-1.84,1.87-2,3.39-0.74     c12.63,10.48,21.08,23.55,24.73,39.64c0.51,2.25,0.34,3.65-2.5,3.38c-1.48-0.14-2.99-0.03-4.49-0.03     C247.17,184.1,247.17,184.11,247.17,184.11z"
           id="path61670" /><path
           class="st2"
           d="M154.5,335.46c-4.13,0-8.26,0.02-12.39-0.01c-1.22-0.01-2.85,0.52-3.05-1.45c-0.14-1.42-0.64-3.51,1.1-3.93     c3.76-0.92,3.13-3.71,3.16-6.23c0.08-6.38,0-12.76,0.08-19.14c0.03-2.56-0.07-4.89-2.88-6.1c-2.1-0.9-1.6-2.81-1.3-4.38     c0.35-1.78,2.04-1.34,3.26-1.36c3.36-0.05,6.73-0.06,10.09,0.11c1.42,0.07,3.15,0.11,3.53,2.08c0.35,1.84,0.01,3.52-2.03,4.03     c-1.87,0.47-2.24,1.59-2.24,3.28c0.03,7.69,0.06,15.39-0.08,23.08c-0.05,2.5,0.9,3.38,3.27,3.22c1.49-0.1,3.01-0.1,4.5,0.02     c2.43,0.19,3.91-0.41,4.02-3.25c0.07-1.74,0.68-3.19,3.24-2.49c2.07,0.57,4.22,0.51,3.8,3.54c-0.05,0.37,0.02,0.75,0.04,1.12     c0.28,7.9,0.28,7.89-7.68,7.82c-2.82-0.03-5.63,0-8.45,0C154.5,335.42,154.5,335.44,154.5,335.46z"
           id="path61672" /><path
           class="st2"
           d="M513.14,320.97c-0.51-7.82,4.08-13.29,9.42-14.87c8.61-2.55,16.67,4.88,15.27,13.89     c-0.33,2.13-1.62,2.17-3.18,2.17c-4.49,0-8.97,0.09-13.46-0.02c-2.5-0.06-2.83,1.17-2.34,3.16c1.09,4.45,6.26,7.38,11.01,6.17     c1.08-0.27,2.16-0.66,3.13-1.19c1.71-0.95,2.23,0.09,2.93,1.36c0.83,1.51-0.28,2.04-1.16,2.5c-9.61,5.01-21.15,0.16-21.63-11.49     C513.12,322.09,513.14,321.53,513.14,320.97z M525.37,318.46c0-0.01,0-0.01,0-0.02c1.68,0,3.36-0.08,5.03,0.02     c1.89,0.11,2.67-0.32,2.19-2.5c-0.75-3.45-2.54-5.73-5.61-6.06c-3.34-0.36-5.67,1.42-7.32,4.12c-2.12,3.45-1.61,4.36,2.36,4.43     C523.13,318.48,524.25,318.46,525.37,318.46z"
           id="path61674" /><path
           class="st2"
           d="M449.83,312.98c0-5.07-0.15-10.14,0.08-15.19c0.08-1.76-1.66-4.9,2.51-4.76c4.14,0.14,2.3,3.31,2.33,5.04     c0.21,9.38,0.09,18.76,0.11,28.14c0,2.19-0.49,4.5,2.11,5.9c0.99,0.53,1.26,1.93,0.68,3.02c-0.62,1.16-1.91,1.01-3.01,0.94     c-3.27-0.19-4.63-1.65-4.73-5.65c-0.14-5.81-0.04-11.63-0.04-17.45C449.86,312.98,449.85,312.98,449.83,312.98z"
           id="path61676" /><path
           class="st2"
           d="M482.05,312.56c0-4.5-0.2-9.01,0.09-13.49c0.15-2.26-2.16-6.42,3.04-5.98c3.94,0.33,1.98,3.71,2.03,5.6     c0.22,9.18,0.08,18.36,0.12,27.55c0.01,2.14-0.65,4.47,2.05,5.84c0.81,0.41,1.32,1.87,0.8,3c-0.57,1.22-1.88,1.11-2.96,1.06     c-3.27-0.15-4.88-1.84-5.05-6.15c-0.23-5.8-0.06-11.62-0.06-17.42C482.08,312.56,482.06,312.56,482.05,312.56z"
           id="path61678" /><path
           class="st2"
           d="M498.49,312.3c0-4.86-0.15-9.72,0.08-14.56c0.08-1.76-1.62-4.77,2.53-4.79c4.29-0.02,2.92,3.02,2.95,5.11     c0.1,9.15,0,18.3,0.07,27.46c0.02,2.43-0.68,4.89,1.98,6.98c1.7,1.34,0.23,3.57-2.13,3.56c-3.47-0.02-5.28-1.95-5.4-6.39     c-0.16-5.79-0.04-11.58-0.04-17.37C498.51,312.3,498.5,312.3,498.49,312.3z"
           id="path61680" /><path
           class="st2"
           d="M471.43,321.13c0,3.73-0.05,7.47,0.02,11.2c0.04,1.88-0.08,3.24-2.58,3.15c-2.03-0.07-3.04-0.49-3-2.82     c0.12-7.84,0.09-15.68,0.03-23.51c-0.02-2.09,0.62-3.03,2.87-3c2.4,0.03,2.68,1.28,2.63,3.23c-0.1,3.92-0.03,7.84-0.03,11.76     C471.4,321.13,471.42,321.13,471.43,321.13z"
           id="path61682" /><path
           class="st2"
           d="M123.06,282.53c1.09,0,1.84-0.06,2.58,0.02c0.71,0.07,1.4,0.28,2.1,0.43c-0.34,0.64-0.53,1.63-1.06,1.87     c-2.11,0.97-3.69,2.52-5.16,4.2c-1.99,2.27-4.55,1.19-6.84,1.17c-1.53-0.01-0.74-1.26-0.37-2.02     C116.13,284.39,118.59,281.56,123.06,282.53z"
           id="path61684" /><path
           class="st2"
           d="M472.49,297.2c-0.24,2.4-1.49,3.53-3.68,3.55c-1.93,0.02-3.3-0.91-3.49-2.89c-0.21-2.25,1.05-3.45,3.26-3.65     C470.89,294,471.96,295.34,472.49,297.2z"
           id="path61686" /></g></g></g></svg>